G04 start of page 6 for group -4062 idx -4062 *
G04 Title: vt100lcd84, soldermask *
G04 Creator: pcb 20091103 *
G04 CreationDate: Tue 01 May 2012 10:21:43 PM GMT UTC *
G04 For: ecomer *
G04 Format: Gerber/RS-274X *
G04 PCB-Dimensions: 334646 161417 *
G04 PCB-Coordinate-Origin: lower left *
%MOIN*%
%FSLAX25Y25*%
%LNBACKMASK*%
%ADD14C,0.0200*%
%ADD19C,0.0800*%
%ADD34C,0.0970*%
%ADD35C,0.0750*%
%ADD36C,0.0160*%
%ADD37C,0.1000*%
%ADD38C,0.1044*%
%ADD39C,0.0750*%
%ADD40C,0.0780*%
%ADD41C,0.0850*%
%ADD42C,0.0907*%
G54D14*G36*
X120030Y52107D02*Y43607D01*
X128530D01*
Y52107D01*
X120030D01*
G37*
G36*
X122150Y32267D02*Y22567D01*
X131850D01*
Y32267D01*
X122150D01*
G37*
G54D34*X137000Y27417D03*
G54D19*X137130Y91838D03*
Y71838D03*
X115478Y92126D03*
Y72126D03*
G54D35*X95083Y72571D03*
Y91783D03*
G54D36*X19685Y19685D03*
G54D14*G36*
X39692Y93622D02*Y83622D01*
X49692D01*
Y93622D01*
X39692D01*
G37*
G54D37*X44692Y63032D03*
X26976Y88622D03*
Y63032D03*
G54D36*X19685Y141732D03*
G54D38*X61500Y71917D03*
Y31917D03*
Y128417D03*
Y88417D03*
G54D36*X314961Y19685D03*
G54D39*X143110Y142126D03*
X153110D03*
X163110D03*
X173110D03*
X183110D03*
X193110D03*
X203110D03*
X213110D03*
X223110D03*
X233110D03*
X243110D03*
X253110D03*
X263110D03*
X273110D03*
X283110D03*
G54D14*G36*
X289361Y145875D02*Y138377D01*
X296859D01*
Y145875D01*
X289361D01*
G37*
G54D36*X314961Y141732D03*
G54D40*X94000Y128417D03*
X104000D03*
G54D14*G36*
X80100Y132317D02*Y124517D01*
X87900D01*
Y132317D01*
X80100D01*
G37*
G54D41*X259685Y89602D03*
G54D19*X230787Y96412D03*
G54D42*X288134Y90457D03*
G54D41*X259685Y69602D03*
G54D14*G36*
X273754Y75308D02*Y66234D01*
X282828D01*
Y75308D01*
X273754D01*
G37*
G54D42*X297977Y70771D03*
G54D19*X220787Y96412D03*
X210787D03*
X200787D03*
X190787D03*
X180787D03*
X170787D03*
Y66412D03*
X180787D03*
X190787D03*
X200787D03*
X210787D03*
X220787D03*
X230787D03*
G54D41*X154280Y47857D03*
G54D34*X147000Y27417D03*
G54D14*G36*
X159150Y32267D02*Y22567D01*
X168850D01*
Y32267D01*
X159150D01*
G37*
G54D34*X174000Y27417D03*
G54D19*X220787Y97912D02*Y94912D01*
X230787Y97912D02*Y94912D01*
X210787Y97912D02*Y94912D01*
X200787Y97912D02*Y94912D01*
X190787Y97912D02*Y94912D01*
X180787Y97912D02*Y94912D01*
X170787Y97912D02*Y94912D01*
Y67912D02*Y64912D01*
X180787Y67912D02*Y64912D01*
X190787Y67912D02*Y64912D01*
X200787Y67912D02*Y64912D01*
X210787Y67912D02*Y64912D01*
X220787Y67912D02*Y64912D01*
X230787Y67912D02*Y64912D01*
M02*
