G04 start of page 3 for group 1 idx 1 *
G04 Title: vt100lcd84, solder *
G04 Creator: pcb 20091103 *
G04 CreationDate: Tue 01 May 2012 10:21:43 PM GMT UTC *
G04 For: ecomer *
G04 Format: Gerber/RS-274X *
G04 PCB-Dimensions: 334646 161417 *
G04 PCB-Coordinate-Origin: lower left *
%MOIN*%
%FSLAX25Y25*%
%LNBACK*%
%ADD11C,0.0250*%
%ADD12C,0.0100*%
%ADD13C,0.0150*%
%ADD14C,0.0200*%
%ADD15C,0.0810*%
%ADD16C,0.0600*%
%ADD17C,0.0550*%
%ADD18C,0.1630*%
%ADD19C,0.0800*%
%ADD20C,0.0984*%
%ADD21C,0.0630*%
%ADD22C,0.0720*%
%ADD23C,0.0650*%
%ADD24C,0.0787*%
%ADD25C,0.0460*%
%ADD28C,0.0350*%
%ADD29C,0.0290*%
%ADD30C,0.0960*%
%ADD31C,0.0394*%
%ADD32C,0.0420*%
%ADD33C,0.0417*%
G54D11*X298000Y70771D02*X297977D01*
Y65394D01*
X293000Y60417D01*
X297977Y70771D02*X298000D01*
X297977D02*Y70794D01*
X298000Y70771D01*
X293000Y60417D02*X268870D01*
X298000Y70771D02*X298354D01*
X307000Y79417D01*
X292000Y80417D02*X287937D01*
X278291Y70771D01*
X259685Y69602D02*X244000D01*
G54D12*X230787Y96412D02*Y94912D01*
Y86204D02*X226000Y81417D01*
G54D11*X244000Y69602D02*X233977D01*
G54D12*X230787Y94912D02*Y86204D01*
G54D11*X248900Y81517D02*X268200D01*
X268870Y60417D02*X259685Y69602D01*
X259870Y89417D02*X259685Y89602D01*
X298110Y108110D02*X283386Y122834D01*
X307165Y112441D02*X293228Y126378D01*
G54D13*X288134Y107220D02*X273622Y121732D01*
G54D11*X298110Y86378D02*Y108110D01*
X298000Y86417D02*X292000Y80417D01*
G54D13*X288134Y90457D02*Y107220D01*
G54D11*X307165Y79448D02*Y112441D01*
X268200Y81517D02*X280000Y93317D01*
X280200Y93217D02*Y105717D01*
X263400Y122517D01*
X283386Y122834D02*Y141732D01*
G54D13*X273622Y121732D02*Y141969D01*
G54D11*X283110Y142126D02*Y140811D01*
X282645D01*
X292645Y141811D02*X293645Y142811D01*
X293110Y142126D02*Y142811D01*
X293645D01*
X293228Y141969D02*X293150Y142047D01*
G54D12*X272645Y139811D02*X273645Y140811D01*
X273622Y141969D02*X273150Y142441D01*
X273110Y142126D02*Y140811D01*
X273645D01*
X273300Y141936D02*X273110Y142126D01*
G54D11*X293228Y126378D02*Y141969D01*
X263400Y141836D02*X263110Y142126D01*
X263400Y122517D02*Y141836D01*
G54D12*X243110Y138978D02*Y138977D01*
Y138978D02*Y138977D01*
Y142126D02*Y138978D01*
Y142126D02*Y138978D01*
Y142126D02*Y138978D01*
Y142126D02*Y138978D01*
X244933D02*X243110D01*
X244933D01*
G54D11*X253110Y142126D02*Y140811D01*
X253645D01*
G54D14*X44692Y63032D02*X52615D01*
X61500Y71917D01*
X44692Y88622D02*Y63032D01*
G54D11*X61500Y88417D02*X60000D01*
X26976Y88622D02*Y63032D01*
X115478Y98939D02*X110000Y104417D01*
X77500D01*
X61500Y88417D01*
X60000D02*X51000Y97417D01*
X35771D01*
X26976Y88622D01*
G54D12*X153000Y108417D02*X141400Y121317D01*
X145300Y107917D02*Y108017D01*
Y110517D01*
Y107917D02*Y108017D01*
X153110Y119307D02*X157000Y115417D01*
X145300Y91717D02*Y107917D01*
X163110Y123327D02*X161000Y121217D01*
X141400Y121317D02*X96400D01*
X94000Y122417D01*
Y128417D01*
G54D11*X61500D02*X84000D01*
X164500Y27917D02*X147500Y27417D01*
X164000D02*X147500D01*
X164000D02*Y27917D01*
X164500D01*
X124500Y47637D02*X124280Y47857D01*
G54D12*X127000Y45137D02*X124280Y47857D01*
G54D11*X147000Y27417D02*Y27917D01*
X147500Y27417D01*
X147000D01*
Y27917D01*
X124500Y38517D02*Y47637D01*
X127000Y36017D02*X124500Y38517D01*
X127000Y27417D02*Y36017D01*
X233977Y69602D02*X230787Y66412D01*
Y64912D01*
G54D12*X220787Y66412D02*Y64912D01*
Y61204D02*X208000Y48417D01*
X220787Y64912D02*Y61204D01*
G54D11*X230787Y26204D02*X224000Y19417D01*
X172000D01*
X164000Y27417D01*
G54D12*X208000Y48417D02*X154840D01*
X154280Y47857D01*
G54D11*X147000Y27917D02*Y81968D01*
G54D12*X170787Y66412D02*X145300Y91717D01*
X170787Y66412D02*X170605Y64912D01*
X170787D01*
X226000Y81417D02*X164000D01*
X200787Y66412D02*Y67912D01*
Y74630D02*X198000Y77417D01*
X164000D01*
X200787Y67912D02*Y74630D01*
G54D11*X230787Y64912D02*Y26204D01*
X115766Y91838D02*X115478Y92126D01*
Y98939D01*
X147000Y81968D02*X137130Y91838D01*
X115766D01*
G54D12*X164000Y77417D02*X153000Y88417D01*
X104000Y128417D02*Y135417D01*
X110000Y141417D01*
X143110Y141811D01*
X145300Y110517D02*X139000Y116817D01*
X143110Y142126D02*Y141811D01*
X190787Y96412D02*Y94912D01*
Y90204D02*X186000Y85417D01*
X180787Y94912D02*Y91204D01*
X190787Y94912D02*Y90204D01*
X180787Y96412D02*Y94912D01*
X186000Y85417D02*X165000D01*
X161000Y89417D01*
X178000Y88417D02*X168000D01*
X180787Y91204D02*X178000Y88417D01*
X168000D02*X164000Y92417D01*
X170787Y96412D02*Y97912D01*
X164000Y81417D02*X157000Y88417D01*
Y115417D01*
X161000Y89417D02*Y121417D01*
X153000Y88417D02*Y108417D01*
X164000Y92417D02*Y118117D01*
X182600Y141616D02*X183110Y142126D01*
X183645Y140811D02*X182645Y141811D01*
X183110Y142126D02*Y141811D01*
X182645D01*
X173110Y142126D02*Y141811D01*
X164000Y118117D02*X173100Y127217D01*
Y142116D01*
X173110Y142126D01*
X170787Y96412D02*Y115204D01*
X173110Y141811D02*X173645D01*
X170787Y115204D02*X182600Y127017D01*
Y141616D01*
X163110Y142126D02*Y123327D01*
Y142126D02*Y141811D01*
X163645D01*
X153110Y142126D02*Y141811D01*
X153645D01*
X153110Y142126D02*Y119307D01*
X59765Y114217D02*X59110Y113562D01*
Y112252D02*Y113562D01*
Y112252D02*X59765Y111597D01*
X63695D01*
X64350Y112252D02*X63695Y111597D01*
X64350Y112252D02*Y113562D01*
X63695Y114217D02*X64350Y113562D01*
X61730Y111597D02*Y113562D01*
X59765Y110024D02*X59110Y109369D01*
Y108059D02*Y109369D01*
Y108059D02*X59765Y107404D01*
X63695D01*
X64350Y108059D02*X63695Y107404D01*
X64350Y108059D02*Y109369D01*
X63695Y110024D02*X64350Y109369D01*
X61730Y107404D02*Y109369D01*
X63695Y105831D02*X64350Y105176D01*
X59765Y105831D02*X63695D01*
X59765D02*X59110Y105176D01*
Y103866D02*Y105176D01*
Y103866D02*X59765Y103211D01*
X63695D01*
X64350Y103866D02*X63695Y103211D01*
X64350Y103866D02*Y105176D01*
X63040Y105831D02*X60420Y103211D01*
X64350Y53552D02*Y54862D01*
X59110Y54207D02*X64350D01*
X60420Y55517D02*X59110Y54207D01*
X63695Y51979D02*X64350Y51324D01*
X59765Y51979D02*X63695D01*
X59765D02*X59110Y51324D01*
Y50014D02*Y51324D01*
Y50014D02*X59765Y49359D01*
X63695D01*
X64350Y50014D02*X63695Y49359D01*
X64350Y50014D02*Y51324D01*
X63040Y51979D02*X60420Y49359D01*
X59110Y47786D02*X64350D01*
X62385D02*X64350Y45821D01*
X62385Y47786D02*X61075Y46476D01*
X136355Y45427D02*Y50667D01*
X138320Y45427D02*X138975Y46082D01*
Y50012D01*
X138320Y50667D02*X138975Y50012D01*
X135700Y50667D02*X138320D01*
X135700Y45427D02*X138320D01*
X141203Y50667D02*X142513D01*
X141858Y45427D02*Y50667D01*
X140548Y46737D02*X141858Y45427D01*
X67087Y52080D02*Y56670D01*
X68617Y58200D01*
X70147Y56670D01*
Y52080D02*Y56670D01*
X71984Y52080D02*X75044D01*
X73514D02*Y58200D01*
X77647D02*X79177D01*
X78412Y52080D02*Y58200D01*
X76882Y53610D02*X78412Y52080D01*
X81014Y57435D02*X81779Y58200D01*
X81014Y52845D02*Y57435D01*
Y52845D02*X81779Y52080D01*
X83309D01*
X84074Y52845D01*
Y57435D01*
X83309Y58200D02*X84074Y57435D01*
X81779Y58200D02*X83309D01*
X81014Y56670D02*X84074Y53610D01*
X85912Y57435D02*X86677Y58200D01*
X85912Y52845D02*Y57435D01*
Y52845D02*X86677Y52080D01*
X88207D01*
X88972Y52845D01*
Y57435D01*
X88207Y58200D02*X88972Y57435D01*
X86677Y58200D02*X88207D01*
X85912Y56670D02*X88972Y53610D01*
X90809Y52080D02*Y58200D01*
X93869D01*
X96472D02*X98767D01*
X95707Y57435D02*X96472Y58200D01*
X95707Y52845D02*Y57435D01*
Y52845D02*X96472Y52080D01*
X98767D01*
X101369D02*Y58200D01*
X103664Y52080D02*X104429Y52845D01*
Y57435D01*
X103664Y58200D02*X104429Y57435D01*
X100604Y58200D02*X103664D01*
X100604Y52080D02*X103664D01*
X106267Y57435D02*X107032Y58200D01*
X106267Y55905D02*Y57435D01*
Y55905D02*X107032Y55140D01*
X108562D01*
X109327Y55905D01*
Y57435D01*
X108562Y58200D02*X109327Y57435D01*
X107032Y58200D02*X108562D01*
X106267Y54375D02*X107032Y55140D01*
X106267Y52845D02*Y54375D01*
Y52845D02*X107032Y52080D01*
X108562D01*
X109327Y52845D01*
Y54375D01*
X108562Y55140D02*X109327Y54375D01*
X111164Y55140D02*X114224Y52080D01*
X111164Y55140D02*X114989D01*
X114224Y52080D02*Y58200D01*
X79056Y63105D02*Y67695D01*
X80586Y69225D01*
X82116Y67695D01*
Y63105D02*Y67695D01*
X83953Y63870D02*X84718Y63105D01*
X86248D01*
X87013Y63870D01*
Y68460D01*
X86248Y69225D02*X87013Y68460D01*
X84718Y69225D02*X86248D01*
X83953Y68460D02*X84718Y69225D01*
Y66165D02*X87013D01*
X133755Y137167D02*X135065D01*
X134410Y131927D02*Y137167D01*
X133100Y133237D02*X134410Y131927D01*
X138603D02*X139258Y132582D01*
X137293Y131927D02*X138603D01*
X136638Y132582D02*X137293Y131927D01*
X136638Y132582D02*Y136512D01*
X137293Y137167D01*
X138603Y134547D02*X139258Y135202D01*
X136638Y134547D02*X138603D01*
X137293Y137167D02*X138603D01*
X139258Y136512D01*
Y135202D02*Y136512D01*
X299555Y135567D02*X300865D01*
X300210Y130327D02*Y135567D01*
X298900Y131637D02*X300210Y130327D01*
X190630Y111542D02*Y115822D01*
Y111542D02*X192235Y113147D01*
X193840Y111542D01*
Y115822D01*
X195125Y112077D02*Y115287D01*
Y112077D02*X195660Y111542D01*
X196730D01*
X197265Y112077D01*
Y115287D01*
X196730Y115822D02*X197265Y115287D01*
X195660Y115822D02*X196730D01*
X195125Y115287D02*X195660Y115822D01*
X198550Y111542D02*Y115287D01*
X199085Y115822D01*
X200155D01*
X200690Y115287D01*
Y111542D02*Y115287D01*
X201975Y111542D02*Y115822D01*
Y111542D02*Y112077D01*
X204650Y114752D01*
Y111542D02*Y115822D01*
X205935Y111542D02*X208075D01*
X207005D02*Y115822D01*
X211286Y111542D02*Y115822D01*
X213426D01*
X215246D02*X216851D01*
X214711Y115287D02*X215246Y115822D01*
X214711Y112077D02*Y115287D01*
Y112077D02*X215246Y111542D01*
X216851D01*
X218671D02*Y115822D01*
X220276Y111542D02*X220811Y112077D01*
Y115287D01*
X220276Y115822D02*X220811Y115287D01*
X218136Y115822D02*X220276D01*
X218136Y111542D02*X220276D01*
X224022Y112077D02*Y115287D01*
Y112077D02*X224557Y111542D01*
X225627D01*
X226162Y112077D01*
Y115287D01*
X225627Y115822D02*X226162Y115287D01*
X224557Y115822D02*X225627D01*
X224022Y115287D02*X224557Y115822D01*
X227447Y111542D02*Y115822D01*
Y111542D02*Y112077D01*
X230122Y114752D01*
Y111542D02*Y115822D01*
X190314Y118155D02*X192454D01*
X191384D02*Y122435D01*
X193739Y118155D02*Y122435D01*
X196414Y118155D02*Y122435D01*
X193739Y120295D02*X196414D01*
X197699Y118155D02*X198769D01*
X198234D02*Y122435D01*
X197699D02*X198769D01*
X202194Y118155D02*X202729Y118690D01*
X200589Y118155D02*X202194D01*
X200054Y118690D02*X200589Y118155D01*
X200054Y118690D02*Y119760D01*
X200589Y120295D01*
X202194D01*
X202729Y120830D01*
Y121900D01*
X202194Y122435D02*X202729Y121900D01*
X200589Y122435D02*X202194D01*
X200054Y121900D02*X200589Y122435D01*
X208080Y118155D02*X208615Y118690D01*
X206475Y118155D02*X208080D01*
X205940Y118690D02*X206475Y118155D01*
X205940Y118690D02*Y119760D01*
X206475Y120295D01*
X208080D01*
X208615Y120830D01*
Y121900D01*
X208080Y122435D02*X208615Y121900D01*
X206475Y122435D02*X208080D01*
X205940Y121900D02*X206475Y122435D01*
X209900Y118155D02*X210970D01*
X210435D02*Y122435D01*
X209900D02*X210970D01*
X212790Y118155D02*Y122435D01*
X214395Y118155D02*X214930Y118690D01*
Y121900D01*
X214395Y122435D02*X214930Y121900D01*
X212255Y122435D02*X214395D01*
X212255Y118155D02*X214395D01*
X216215Y120295D02*X217820D01*
X216215Y122435D02*X218355D01*
X216215Y118155D02*Y122435D01*
Y118155D02*X218355D01*
X242047Y42014D02*X244187D01*
X243117D02*Y46294D01*
X245472Y42549D02*Y46294D01*
Y42549D02*X246007Y42014D01*
X247612D01*
X248147Y42549D01*
Y46294D01*
X245472Y44154D02*X248147D01*
X249967Y42014D02*Y46294D01*
X249432Y42014D02*X251572D01*
X252107Y42549D01*
Y43619D01*
X251572Y44154D02*X252107Y43619D01*
X249967Y44154D02*X251572D01*
X253392Y42014D02*X255532D01*
X256067Y42549D01*
Y43619D01*
X255532Y44154D02*X256067Y43619D01*
X253927Y44154D02*X255532D01*
X253927Y42014D02*Y46294D01*
Y44154D02*X256067Y46294D01*
X259278Y42549D02*Y45759D01*
Y42549D02*X259813Y42014D01*
X260883D01*
X261418Y42549D01*
Y45759D01*
X260883Y46294D02*X261418Y45759D01*
X259813Y46294D02*X260883D01*
X259278Y45759D02*X259813Y46294D01*
X262703Y42014D02*Y46294D01*
X265378Y42014D02*Y46294D01*
X262703Y44154D02*X265378D01*
X266663Y42014D02*Y46294D01*
X268803D01*
X242518Y49116D02*Y50721D01*
X243053Y51256D01*
X243588D01*
X244123Y50721D01*
Y49116D02*Y50721D01*
X244658Y51256D01*
X245193D01*
X245728Y50721D01*
Y49116D02*Y50721D01*
X247013Y49116D02*Y50721D01*
X247548Y51256D01*
X248083D01*
X248618Y50721D01*
Y49116D02*Y50721D01*
X249153Y51256D01*
X249688D01*
X250223Y50721D01*
Y49116D02*Y50721D01*
X251508Y49116D02*Y50721D01*
X252043Y51256D01*
X252578D01*
X253113Y50721D01*
Y49116D02*Y50721D01*
X253648Y51256D01*
X254183D01*
X254718Y50721D01*
Y49116D02*Y50721D01*
X256003Y51256D02*X256538D01*
X258358Y46976D02*Y50721D01*
X258893Y51256D01*
X257823Y48581D02*X258893D01*
X261569Y49116D02*X262104Y49651D01*
X260499Y49116D02*X261569D01*
X259964Y49651D02*X260499Y49116D01*
X259964Y49651D02*Y50721D01*
X260499Y51256D01*
X262104Y49116D02*Y50721D01*
X262639Y51256D01*
X260499D02*X261569D01*
X262104Y50721D01*
X264459Y49651D02*Y52861D01*
X263924Y49116D02*X264459Y49651D01*
X264994Y49116D01*
X266064D01*
X266599Y49651D01*
Y50721D01*
X266064Y51256D02*X266599Y50721D01*
X264994Y51256D02*X266064D01*
X264459Y50721D02*X264994Y51256D01*
X268419Y49651D02*Y51256D01*
Y49651D02*X268954Y49116D01*
X270024D01*
X267884D02*X268419Y49651D01*
X271309Y51256D02*X271844D01*
X273129Y49651D02*Y50721D01*
Y49651D02*X273664Y49116D01*
X274734D01*
X275269Y49651D01*
Y50721D01*
X274734Y51256D02*X275269Y50721D01*
X273664Y51256D02*X274734D01*
X273129Y50721D02*X273664Y51256D01*
X277089Y49651D02*Y51256D01*
Y49651D02*X277624Y49116D01*
X278694D01*
X276554D02*X277089Y49651D01*
X281584Y49116D02*X282119Y49651D01*
X280514Y49116D02*X281584D01*
X279979Y49651D02*X280514Y49116D01*
X279979Y49651D02*Y50721D01*
X280514Y51256D01*
X281584D01*
X282119Y50721D01*
X279979Y52326D02*X280514Y52861D01*
X281584D01*
X282119Y52326D01*
Y49116D02*Y52326D01*
X283404Y50721D02*X286614Y47511D01*
X287899D02*Y50721D01*
Y47511D02*X288434Y46976D01*
X289504D01*
X290039Y47511D01*
Y50721D01*
X289504Y51256D02*X290039Y50721D01*
X288434Y51256D02*X289504D01*
X287899Y50721D02*X288434Y51256D01*
X291324Y46976D02*Y51256D01*
X293999Y46976D02*Y51256D01*
X291324Y49116D02*X293999D01*
X295285Y46976D02*Y51256D01*
X297425D01*
X241732Y34203D02*Y37413D01*
Y34203D02*X242267Y33668D01*
X243337D01*
X243872Y34203D01*
Y37413D01*
X243337Y37948D02*X243872Y37413D01*
X242267Y37948D02*X243337D01*
X241732Y37413D02*X242267Y37948D01*
X245692Y33668D02*Y37948D01*
X245157Y33668D02*X247297D01*
X247832Y34203D01*
Y35273D01*
X247297Y35808D02*X247832Y35273D01*
X245692Y35808D02*X247297D01*
X249117D02*X250722D01*
X249117Y37948D02*X251257D01*
X249117Y33668D02*Y37948D01*
Y33668D02*X251257D01*
X252542D02*Y37948D01*
Y33668D02*Y34203D01*
X255217Y36878D01*
Y33668D02*Y37948D01*
X258428Y33668D02*Y37948D01*
X261103Y33668D02*Y37948D01*
X258428Y35808D02*X261103D01*
X262388Y34203D02*Y37948D01*
Y34203D02*X262923Y33668D01*
X264528D01*
X265063Y34203D01*
Y37948D01*
X262388Y35808D02*X265063D01*
X266348Y33668D02*X268488D01*
X269023Y34203D01*
Y35273D01*
X268488Y35808D02*X269023Y35273D01*
X266883Y35808D02*X268488D01*
X266883Y33668D02*Y37948D01*
Y35808D02*X269023Y37948D01*
X270843Y33668D02*Y37948D01*
X272448Y33668D02*X272983Y34203D01*
Y37413D01*
X272448Y37948D02*X272983Y37413D01*
X270308Y37948D02*X272448D01*
X270308Y33668D02*X272448D01*
X274268D02*Y37948D01*
X275873Y36343D01*
X277478Y37948D01*
Y33668D02*Y37948D01*
X278763Y34203D02*Y37948D01*
Y34203D02*X279298Y33668D01*
X280903D01*
X281438Y34203D01*
Y37948D01*
X278763Y35808D02*X281438D01*
X282723Y33668D02*X284863D01*
X285398Y34203D01*
Y35273D01*
X284863Y35808D02*X285398Y35273D01*
X283258Y35808D02*X284863D01*
X283258Y33668D02*Y37948D01*
Y35808D02*X285398Y37948D01*
X286683Y35808D02*X288288D01*
X286683Y37948D02*X288823D01*
X286683Y33668D02*Y37948D01*
Y33668D02*X288823D01*
X292034D02*Y37948D01*
X294174D01*
X295459Y33668D02*X296529D01*
X295994D02*Y37948D01*
X295459D02*X296529D01*
X298349D02*X299954D01*
X297814Y37413D02*X298349Y37948D01*
X297814Y34203D02*Y37413D01*
Y34203D02*X298349Y33668D01*
X299954D01*
X301240Y35808D02*X302845D01*
X301240Y37948D02*X303380D01*
X301240Y33668D02*Y37948D01*
Y33668D02*X303380D01*
X304665D02*Y37948D01*
Y33668D02*Y34203D01*
X307340Y36878D01*
Y33668D02*Y37948D01*
X310765Y33668D02*X311300Y34203D01*
X309160Y33668D02*X310765D01*
X308625Y34203D02*X309160Y33668D01*
X308625Y34203D02*Y35273D01*
X309160Y35808D01*
X310765D01*
X311300Y36343D01*
Y37413D01*
X310765Y37948D02*X311300Y37413D01*
X309160Y37948D02*X310765D01*
X308625Y37413D02*X309160Y37948D01*
X312585Y35808D02*X314190D01*
X312585Y37948D02*X314725D01*
X312585Y33668D02*Y37948D01*
Y33668D02*X314725D01*
G54D14*G36*
X121030Y51107D02*Y44607D01*
X127530D01*
Y51107D01*
X121030D01*
G37*
G36*
X122950Y31467D02*Y23367D01*
X131050D01*
Y31467D01*
X122950D01*
G37*
G54D15*X137000Y27417D03*
G54D16*X137130Y91838D03*
Y71838D03*
X115478Y92126D03*
Y72126D03*
G54D17*X95083Y72571D03*
Y91783D03*
G54D18*X19685Y19685D03*
G54D14*G36*
X40692Y92622D02*Y84622D01*
X48692D01*
Y92622D01*
X40692D01*
G37*
G54D19*X44692Y63032D03*
X26976Y88622D03*
Y63032D03*
G54D18*X19685Y141732D03*
G54D20*X61500Y71917D03*
Y31917D03*
Y128417D03*
Y88417D03*
G54D18*X314961Y19685D03*
G54D21*X143110Y142126D03*
X153110D03*
X163110D03*
X173110D03*
X183110D03*
X193110D03*
X203110D03*
X213110D03*
X223110D03*
X233110D03*
X243110D03*
X253110D03*
X263110D03*
X273110D03*
X283110D03*
G54D14*G36*
X289961Y145275D02*Y138976D01*
X296260D01*
Y145275D01*
X289961D01*
G37*
G54D18*X314961Y141732D03*
G54D22*X94000Y128417D03*
X104000D03*
G54D14*G36*
X80400Y132017D02*Y124817D01*
X87600D01*
Y132017D01*
X80400D01*
G37*
G54D23*X259685Y89602D03*
G54D16*X230787Y96412D03*
G54D24*X288134Y90457D03*
G54D23*X259685Y69602D03*
G54D14*G36*
X274354Y74708D02*Y66834D01*
X282228D01*
Y74708D01*
X274354D01*
G37*
G54D24*X297977Y70771D03*
G54D16*X220787Y96412D03*
X210787D03*
X200787D03*
X190787D03*
X180787D03*
X170787D03*
Y66412D03*
X180787D03*
X190787D03*
X200787D03*
X210787D03*
X220787D03*
X230787D03*
G54D23*X154280Y47857D03*
G54D15*X147000Y27417D03*
G54D14*G36*
X159950Y31467D02*Y23367D01*
X168050D01*
Y31467D01*
X159950D01*
G37*
G54D15*X174000Y27417D03*
G54D25*X248900Y81517D03*
X139000Y116817D03*
G54D16*X220787Y97912D02*Y94912D01*
X230787Y97912D02*Y94912D01*
X210787Y97912D02*Y94912D01*
X200787Y97912D02*Y94912D01*
X190787Y97912D02*Y94912D01*
X180787Y97912D02*Y94912D01*
X170787Y97912D02*Y94912D01*
Y67912D02*Y64912D01*
X180787Y67912D02*Y64912D01*
X190787Y67912D02*Y64912D01*
X200787Y67912D02*Y64912D01*
X210787Y67912D02*Y64912D01*
X220787Y67912D02*Y64912D01*
X230787Y67912D02*Y64912D01*
G54D28*G54D25*G54D28*G54D29*G54D30*G54D25*G54D30*G54D31*G54D30*G54D31*G54D30*G54D32*G54D28*G54D33*G54D28*G54D33*G54D28*G54D25*G54D14*M02*
