M48
INCH
T14C0.020
T25C0.046
T28C0.035
T29C0.029
T30C0.096
T32C0.042
T45C0.039
%
T14
X024890Y008151
X013900Y011681
T29
X009508Y007257
X009508Y009178
T28
X012428Y004785
X013713Y009183
X013713Y007183
X011547Y009212
X011547Y007212
X025968Y008960
X023078Y009641
X025968Y006960
X022078Y009641
X021078Y009641
X020078Y009641
X019078Y009641
X018078Y009641
X017078Y009641
X017078Y006641
X018078Y006641
X019078Y006641
X020078Y006641
X021078Y006641
X022078Y006641
X023078Y006641
X015428Y004785
T45
X006150Y007191
X006150Y003191
X006150Y012841
X006150Y008841
X014311Y014212
X015311Y014212
X016311Y014212
X017311Y014212
X018311Y014212
X019311Y014212
X020311Y014212
X021311Y014212
X022311Y014212
X023311Y014212
X024311Y014212
X025311Y014212
X026311Y014212
X027311Y014212
X028311Y014212
X029311Y014212
T32
X009400Y012841
X010400Y012841
X008400Y012841
X028813Y009045
X027829Y007077
X029797Y007077
T25
X012700Y002741
X013700Y002741
X004469Y008862
X004469Y006303
X002697Y008862
X002697Y006303
X014700Y002741
X016400Y002741
X017400Y002741
T30
X001968Y001968
X001968Y014173
X031496Y001968
X031496Y014173
M30
