G04 start of page 11 for group -3984 idx -3984 *
G04 Title: vt100lcd84, fab *
G04 Creator: pcb 20091103 *
G04 CreationDate: Tue 01 May 2012 10:21:43 PM GMT UTC *
G04 For: ecomer *
G04 Format: Gerber/RS-274X *
G04 PCB-Dimensions: 334646 161417 *
G04 PCB-Coordinate-Origin: lower left *
%MOIN*%
%FSLAX25Y25*%
%LNFAB*%
%ADD12C,0.0100*%
%ADD46R,0.0080X0.0080*%
%ADD47C,0.0060*%
G54D46*X314961Y22885D02*Y16485D01*
X311761Y19685D02*X318161D01*
X313361Y21285D02*X316561D01*
X313361D02*Y18085D01*
X316561D01*
Y21285D02*Y18085D01*
X314961Y144932D02*Y138532D01*
X311761Y141732D02*X318161D01*
X313361Y143332D02*X316561D01*
X313361D02*Y140132D01*
X316561D01*
Y143332D02*Y140132D01*
X19685Y144932D02*Y138532D01*
X16485Y141732D02*X22885D01*
X18085Y143332D02*X21285D01*
X18085D02*Y140132D01*
X21285D01*
Y143332D02*Y140132D01*
X19685Y22885D02*Y16485D01*
X16485Y19685D02*X22885D01*
X18085Y21285D02*X21285D01*
X18085D02*Y18085D01*
X21285D01*
Y21285D02*Y18085D01*
X15000Y175867D02*Y169467D01*
X11800Y172667D02*X18200D01*
X13400Y174267D02*X16600D01*
X13400D02*Y171067D01*
X16600D01*
Y174267D02*Y171067D01*
G54D47*X135000Y174917D02*Y174167D01*
X136500Y172667D01*
X138000Y174167D01*
Y174917D02*Y174167D01*
X136500Y172667D02*Y168917D01*
X139801Y171917D02*X142051D01*
X139801Y168917D02*X142801D01*
X139801Y174917D02*Y168917D01*
Y174917D02*X142801D01*
X147603D02*X148353Y174167D01*
X145353Y174917D02*X147603D01*
X144603Y174167D02*X145353Y174917D01*
X144603Y174167D02*Y172667D01*
X145353Y171917D01*
X147603D01*
X148353Y171167D01*
Y169667D01*
X147603Y168917D02*X148353Y169667D01*
X145353Y168917D02*X147603D01*
X144603Y169667D02*X145353Y168917D01*
X135000Y165666D02*X150154D01*
X98000Y171917D02*X101000Y174917D01*
X98000Y171917D02*X101750D01*
X101000Y174917D02*Y168917D01*
X98000Y165666D02*X103551D01*
X45000Y169667D02*X45750Y168917D01*
X45000Y174167D02*Y169667D01*
Y174167D02*X45750Y174917D01*
X47250D01*
X48000Y174167D01*
Y169667D01*
X47250Y168917D02*X48000Y169667D01*
X45750Y168917D02*X47250D01*
X45000Y170417D02*X48000Y173417D01*
X49801Y168917D02*X50551D01*
X52353Y169667D02*X53103Y168917D01*
X52353Y174167D02*Y169667D01*
Y174167D02*X53103Y174917D01*
X54603D01*
X55353Y174167D01*
Y169667D01*
X54603Y168917D02*X55353Y169667D01*
X53103Y168917D02*X54603D01*
X52353Y170417D02*X55353Y173417D01*
X57154Y168917D02*X60154Y171917D01*
Y174167D02*Y171917D01*
X59404Y174917D02*X60154Y174167D01*
X57904Y174917D02*X59404D01*
X57154Y174167D02*X57904Y174917D01*
X57154Y174167D02*Y172667D01*
X57904Y171917D01*
X60154D01*
X64206Y174917D02*X64956Y174167D01*
X62706Y174917D02*X64206D01*
X61956Y174167D02*X62706Y174917D01*
X61956Y174167D02*Y169667D01*
X62706Y168917D01*
X64206Y171917D02*X64956Y171167D01*
X61956Y171917D02*X64206D01*
X62706Y168917D02*X64206D01*
X64956Y169667D01*
Y171167D02*Y169667D01*
X45000Y165666D02*X66757D01*
X127000Y27417D02*Y24217D01*
Y27417D02*X129773Y29017D01*
X127000Y27417D02*X124227Y29017D01*
X125400Y27417D02*G75*G03X128600Y27417I1600J0D01*G01*
G75*G03X125400Y27417I-1600J0D01*G01*
X137000D02*Y24217D01*
Y27417D02*X139773Y29017D01*
X137000Y27417D02*X134227Y29017D01*
X135400Y27417D02*G75*G03X138600Y27417I1600J0D01*G01*
G75*G03X135400Y27417I-1600J0D01*G01*
X147000D02*Y24217D01*
Y27417D02*X149773Y29017D01*
X147000Y27417D02*X144227Y29017D01*
X145400Y27417D02*G75*G03X148600Y27417I1600J0D01*G01*
G75*G03X145400Y27417I-1600J0D01*G01*
X164000D02*Y24217D01*
Y27417D02*X166773Y29017D01*
X164000Y27417D02*X161227Y29017D01*
X162400Y27417D02*G75*G03X165600Y27417I1600J0D01*G01*
G75*G03X162400Y27417I-1600J0D01*G01*
X174000D02*Y24217D01*
Y27417D02*X176773Y29017D01*
X174000Y27417D02*X171227Y29017D01*
X172400Y27417D02*G75*G03X175600Y27417I1600J0D01*G01*
G75*G03X172400Y27417I-1600J0D01*G01*
X44692Y88622D02*Y85422D01*
Y88622D02*X47465Y90222D01*
X44692Y88622D02*X41919Y90222D01*
X43092Y88622D02*G75*G03X46292Y88622I1600J0D01*G01*
G75*G03X43092Y88622I-1600J0D01*G01*
X44692Y63032D02*Y59832D01*
Y63032D02*X47465Y64632D01*
X44692Y63032D02*X41919Y64632D01*
X43092Y63032D02*G75*G03X46292Y63032I1600J0D01*G01*
G75*G03X43092Y63032I-1600J0D01*G01*
X26976Y88622D02*Y85422D01*
Y88622D02*X29749Y90222D01*
X26976Y88622D02*X24203Y90222D01*
X25376Y88622D02*G75*G03X28576Y88622I1600J0D01*G01*
G75*G03X25376Y88622I-1600J0D01*G01*
X26976Y63032D02*Y59832D01*
Y63032D02*X29749Y64632D01*
X26976Y63032D02*X24203Y64632D01*
X25376Y63032D02*G75*G03X28576Y63032I1600J0D01*G01*
G75*G03X25376Y63032I-1600J0D01*G01*
X15000Y187667D02*Y184467D01*
Y187667D02*X17773Y189267D01*
X15000Y187667D02*X12227Y189267D01*
X13400Y187667D02*G75*G03X16600Y187667I1600J0D01*G01*
G75*G03X13400Y187667I-1600J0D01*G01*
X135000Y189917D02*Y189167D01*
X136500Y187667D01*
X138000Y189167D01*
Y189917D02*Y189167D01*
X136500Y187667D02*Y183917D01*
X139801Y186917D02*X142051D01*
X139801Y183917D02*X142801D01*
X139801Y189917D02*Y183917D01*
Y189917D02*X142801D01*
X147603D02*X148353Y189167D01*
X145353Y189917D02*X147603D01*
X144603Y189167D02*X145353Y189917D01*
X144603Y189167D02*Y187667D01*
X145353Y186917D01*
X147603D01*
X148353Y186167D01*
Y184667D01*
X147603Y183917D02*X148353Y184667D01*
X145353Y183917D02*X147603D01*
X144603Y184667D02*X145353Y183917D01*
X135000Y180666D02*X150154D01*
X98000Y183917D02*X101000Y186917D01*
Y189167D02*Y186917D01*
X100250Y189917D02*X101000Y189167D01*
X98750Y189917D02*X100250D01*
X98000Y189167D02*X98750Y189917D01*
X98000Y189167D02*Y187667D01*
X98750Y186917D01*
X101000D01*
X98000Y180666D02*X102801D01*
X45000Y184667D02*X45750Y183917D01*
X45000Y189167D02*Y184667D01*
Y189167D02*X45750Y189917D01*
X47250D01*
X48000Y189167D01*
Y184667D01*
X47250Y183917D02*X48000Y184667D01*
X45750Y183917D02*X47250D01*
X45000Y185417D02*X48000Y188417D01*
X49801Y183917D02*X50551D01*
X52353Y184667D02*X53103Y183917D01*
X52353Y189167D02*Y184667D01*
Y189167D02*X53103Y189917D01*
X54603D01*
X55353Y189167D01*
Y184667D01*
X54603Y183917D02*X55353Y184667D01*
X53103Y183917D02*X54603D01*
X52353Y185417D02*X55353Y188417D01*
X57154Y186917D02*X60154Y189917D01*
X57154Y186917D02*X60904D01*
X60154Y189917D02*Y183917D01*
X64956Y189917D02*X65706Y189167D01*
X63456Y189917D02*X64956D01*
X62706Y189167D02*X63456Y189917D01*
X62706Y189167D02*Y184667D01*
X63456Y183917D01*
X64956Y186917D02*X65706Y186167D01*
X62706Y186917D02*X64956D01*
X63456Y183917D02*X64956D01*
X65706Y184667D01*
Y186167D02*Y184667D01*
X45000Y180666D02*X67507D01*
X276691Y72371D02*X279891D01*
X276691D02*Y69171D01*
X279891D01*
Y72371D02*Y69171D01*
X286534Y92057D02*X289734D01*
X286534D02*Y88857D01*
X289734D01*
Y92057D02*Y88857D01*
X296377Y72371D02*X299577D01*
X296377D02*Y69171D01*
X299577D01*
Y72371D02*Y69171D01*
X92400Y130017D02*X95600D01*
X92400D02*Y126817D01*
X95600D01*
Y130017D02*Y126817D01*
X82400Y130017D02*X85600D01*
X82400D02*Y126817D01*
X85600D01*
Y130017D02*Y126817D01*
X102400Y130017D02*X105600D01*
X102400D02*Y126817D01*
X105600D01*
Y130017D02*Y126817D01*
X13400Y204267D02*X16600D01*
X13400D02*Y201067D01*
X16600D01*
Y204267D02*Y201067D01*
X135000Y204917D02*Y204167D01*
X136500Y202667D01*
X138000Y204167D01*
Y204917D02*Y204167D01*
X136500Y202667D02*Y198917D01*
X139801Y201917D02*X142051D01*
X139801Y198917D02*X142801D01*
X139801Y204917D02*Y198917D01*
Y204917D02*X142801D01*
X147603D02*X148353Y204167D01*
X145353Y204917D02*X147603D01*
X144603Y204167D02*X145353Y204917D01*
X144603Y204167D02*Y202667D01*
X145353Y201917D01*
X147603D01*
X148353Y201167D01*
Y199667D01*
X147603Y198917D02*X148353Y199667D01*
X145353Y198917D02*X147603D01*
X144603Y199667D02*X145353Y198917D01*
X135000Y195666D02*X150154D01*
X100250Y204917D02*X101000Y204167D01*
X98750Y204917D02*X100250D01*
X98000Y204167D02*X98750Y204917D01*
X98000Y204167D02*Y199667D01*
X98750Y198917D01*
X100250Y201917D02*X101000Y201167D01*
X98000Y201917D02*X100250D01*
X98750Y198917D02*X100250D01*
X101000Y199667D01*
Y201167D02*Y199667D01*
X98000Y195666D02*X102801D01*
X45000Y199667D02*X45750Y198917D01*
X45000Y204167D02*Y199667D01*
Y204167D02*X45750Y204917D01*
X47250D01*
X48000Y204167D01*
Y199667D01*
X47250Y198917D02*X48000Y199667D01*
X45750Y198917D02*X47250D01*
X45000Y200417D02*X48000Y203417D01*
X49801Y198917D02*X50551D01*
X52353Y199667D02*X53103Y198917D01*
X52353Y204167D02*Y199667D01*
Y204167D02*X53103Y204917D01*
X54603D01*
X55353Y204167D01*
Y199667D01*
X54603Y198917D02*X55353Y199667D01*
X53103Y198917D02*X54603D01*
X52353Y200417D02*X55353Y203417D01*
X57154Y201917D02*X60154Y204917D01*
X57154Y201917D02*X60904D01*
X60154Y204917D02*Y198917D01*
X62706Y204167D02*X63456Y204917D01*
X65706D01*
X66456Y204167D01*
Y202667D01*
X62706Y198917D02*X66456Y202667D01*
X62706Y198917D02*X66456D01*
X45000Y195666D02*X68257D01*
X60700Y128417D02*G75*G03X62300Y128417I800J0D01*G01*
G75*G03X60700Y128417I-800J0D01*G01*
Y88417D02*G75*G03X62300Y88417I800J0D01*G01*
G75*G03X60700Y88417I-800J0D01*G01*
Y71917D02*G75*G03X62300Y71917I800J0D01*G01*
G75*G03X60700Y71917I-800J0D01*G01*
Y31917D02*G75*G03X62300Y31917I800J0D01*G01*
G75*G03X60700Y31917I-800J0D01*G01*
X142310Y142126D02*G75*G03X143910Y142126I800J0D01*G01*
G75*G03X142310Y142126I-800J0D01*G01*
X152310D02*G75*G03X153910Y142126I800J0D01*G01*
G75*G03X152310Y142126I-800J0D01*G01*
X162310D02*G75*G03X163910Y142126I800J0D01*G01*
G75*G03X162310Y142126I-800J0D01*G01*
X172310D02*G75*G03X173910Y142126I800J0D01*G01*
G75*G03X172310Y142126I-800J0D01*G01*
X182310D02*G75*G03X183910Y142126I800J0D01*G01*
G75*G03X182310Y142126I-800J0D01*G01*
X192310D02*G75*G03X193910Y142126I800J0D01*G01*
G75*G03X192310Y142126I-800J0D01*G01*
X202310D02*G75*G03X203910Y142126I800J0D01*G01*
G75*G03X202310Y142126I-800J0D01*G01*
X212310D02*G75*G03X213910Y142126I800J0D01*G01*
G75*G03X212310Y142126I-800J0D01*G01*
X222310D02*G75*G03X223910Y142126I800J0D01*G01*
G75*G03X222310Y142126I-800J0D01*G01*
X232310D02*G75*G03X233910Y142126I800J0D01*G01*
G75*G03X232310Y142126I-800J0D01*G01*
X242310D02*G75*G03X243910Y142126I800J0D01*G01*
G75*G03X242310Y142126I-800J0D01*G01*
X252310D02*G75*G03X253910Y142126I800J0D01*G01*
G75*G03X252310Y142126I-800J0D01*G01*
X262310D02*G75*G03X263910Y142126I800J0D01*G01*
G75*G03X262310Y142126I-800J0D01*G01*
X272310D02*G75*G03X273910Y142126I800J0D01*G01*
G75*G03X272310Y142126I-800J0D01*G01*
X282310D02*G75*G03X283910Y142126I800J0D01*G01*
G75*G03X282310Y142126I-800J0D01*G01*
X292310D02*G75*G03X293910Y142126I800J0D01*G01*
G75*G03X292310Y142126I-800J0D01*G01*
X14200Y217667D02*G75*G03X15800Y217667I800J0D01*G01*
G75*G03X14200Y217667I-800J0D01*G01*
X135000Y219917D02*Y219167D01*
X136500Y217667D01*
X138000Y219167D01*
Y219917D02*Y219167D01*
X136500Y217667D02*Y213917D01*
X139801Y216917D02*X142051D01*
X139801Y213917D02*X142801D01*
X139801Y219917D02*Y213917D01*
Y219917D02*X142801D01*
X147603D02*X148353Y219167D01*
X145353Y219917D02*X147603D01*
X144603Y219167D02*X145353Y219917D01*
X144603Y219167D02*Y217667D01*
X145353Y216917D01*
X147603D01*
X148353Y216167D01*
Y214667D01*
X147603Y213917D02*X148353Y214667D01*
X145353Y213917D02*X147603D01*
X144603Y214667D02*X145353Y213917D01*
X135000Y210666D02*X150154D01*
X98000Y219167D02*X98750Y219917D01*
X101000D01*
X101750Y219167D01*
Y217667D01*
X98000Y213917D02*X101750Y217667D01*
X98000Y213917D02*X101750D01*
X103551Y214667D02*X104301Y213917D01*
X103551Y219167D02*Y214667D01*
Y219167D02*X104301Y219917D01*
X105801D01*
X106551Y219167D01*
Y214667D01*
X105801Y213917D02*X106551Y214667D01*
X104301Y213917D02*X105801D01*
X103551Y215417D02*X106551Y218417D01*
X98000Y210666D02*X108353D01*
X45000Y214667D02*X45750Y213917D01*
X45000Y219167D02*Y214667D01*
Y219167D02*X45750Y219917D01*
X47250D01*
X48000Y219167D01*
Y214667D01*
X47250Y213917D02*X48000Y214667D01*
X45750Y213917D02*X47250D01*
X45000Y215417D02*X48000Y218417D01*
X49801Y213917D02*X50551D01*
X52353Y214667D02*X53103Y213917D01*
X52353Y219167D02*Y214667D01*
Y219167D02*X53103Y219917D01*
X54603D01*
X55353Y219167D01*
Y214667D01*
X54603Y213917D02*X55353Y214667D01*
X53103Y213917D02*X54603D01*
X52353Y215417D02*X55353Y218417D01*
X57154Y219167D02*X57904Y219917D01*
X59404D01*
X60154Y219167D01*
Y214667D01*
X59404Y213917D02*X60154Y214667D01*
X57904Y213917D02*X59404D01*
X57154Y214667D02*X57904Y213917D01*
Y216917D02*X60154D01*
X61956Y213917D02*X64956Y216917D01*
Y219167D02*Y216917D01*
X64206Y219917D02*X64956Y219167D01*
X62706Y219917D02*X64206D01*
X61956Y219167D02*X62706Y219917D01*
X61956Y219167D02*Y217667D01*
X62706Y216917D01*
X64956D01*
X45000Y210666D02*X66757D01*
X229587Y97612D02*X231987Y95212D01*
X229587D02*X231987Y97612D01*
X219587D02*X221987Y95212D01*
X219587D02*X221987Y97612D01*
X209587D02*X211987Y95212D01*
X209587D02*X211987Y97612D01*
X199587D02*X201987Y95212D01*
X199587D02*X201987Y97612D01*
X189587D02*X191987Y95212D01*
X189587D02*X191987Y97612D01*
X179587D02*X181987Y95212D01*
X179587D02*X181987Y97612D01*
X169587D02*X171987Y95212D01*
X169587D02*X171987Y97612D01*
X169587Y67612D02*X171987Y65212D01*
X169587D02*X171987Y67612D01*
X179587D02*X181987Y65212D01*
X179587D02*X181987Y67612D01*
X189587D02*X191987Y65212D01*
X189587D02*X191987Y67612D01*
X199587D02*X201987Y65212D01*
X199587D02*X201987Y67612D01*
X209587D02*X211987Y65212D01*
X209587D02*X211987Y67612D01*
X219587D02*X221987Y65212D01*
X219587D02*X221987Y67612D01*
X229587D02*X231987Y65212D01*
X229587D02*X231987Y67612D01*
X258485Y90802D02*X260885Y88402D01*
X258485D02*X260885Y90802D01*
X258485Y70802D02*X260885Y68402D01*
X258485D02*X260885Y70802D01*
X114278Y93326D02*X116678Y90926D01*
X114278D02*X116678Y93326D01*
X114278Y73326D02*X116678Y70926D01*
X114278D02*X116678Y73326D01*
X135930Y93038D02*X138330Y90638D01*
X135930D02*X138330Y93038D01*
X135930Y73038D02*X138330Y70638D01*
X135930D02*X138330Y73038D01*
X123080Y49057D02*X125480Y46657D01*
X123080D02*X125480Y49057D01*
X153080D02*X155480Y46657D01*
X153080D02*X155480Y49057D01*
X13800Y233867D02*X16200Y231467D01*
X13800D02*X16200Y233867D01*
X135000Y234917D02*Y234167D01*
X136500Y232667D01*
X138000Y234167D01*
Y234917D02*Y234167D01*
X136500Y232667D02*Y228917D01*
X139801Y231917D02*X142051D01*
X139801Y228917D02*X142801D01*
X139801Y234917D02*Y228917D01*
Y234917D02*X142801D01*
X147603D02*X148353Y234167D01*
X145353Y234917D02*X147603D01*
X144603Y234167D02*X145353Y234917D01*
X144603Y234167D02*Y232667D01*
X145353Y231917D01*
X147603D01*
X148353Y231167D01*
Y229667D01*
X147603Y228917D02*X148353Y229667D01*
X145353Y228917D02*X147603D01*
X144603Y229667D02*X145353Y228917D01*
X135000Y225666D02*X150154D01*
X98000Y234167D02*X98750Y234917D01*
X101000D01*
X101750Y234167D01*
Y232667D01*
X98000Y228917D02*X101750Y232667D01*
X98000Y228917D02*X101750D01*
X103551Y234167D02*X104301Y234917D01*
X106551D01*
X107301Y234167D01*
Y232667D01*
X103551Y228917D02*X107301Y232667D01*
X103551Y228917D02*X107301D01*
X98000Y225666D02*X109103D01*
X45000Y229667D02*X45750Y228917D01*
X45000Y234167D02*Y229667D01*
Y234167D02*X45750Y234917D01*
X47250D01*
X48000Y234167D01*
Y229667D01*
X47250Y228917D02*X48000Y229667D01*
X45750Y228917D02*X47250D01*
X45000Y230417D02*X48000Y233417D01*
X49801Y228917D02*X50551D01*
X52353Y229667D02*X53103Y228917D01*
X52353Y234167D02*Y229667D01*
Y234167D02*X53103Y234917D01*
X54603D01*
X55353Y234167D01*
Y229667D01*
X54603Y228917D02*X55353Y229667D01*
X53103Y228917D02*X54603D01*
X52353Y230417D02*X55353Y233417D01*
X57154Y234167D02*X57904Y234917D01*
X59404D01*
X60154Y234167D01*
Y229667D01*
X59404Y228917D02*X60154Y229667D01*
X57904Y228917D02*X59404D01*
X57154Y229667D02*X57904Y228917D01*
Y231917D02*X60154D01*
X61956Y234917D02*X64956D01*
X61956D02*Y231917D01*
X62706Y232667D01*
X64206D01*
X64956Y231917D01*
Y229667D01*
X64206Y228917D02*X64956Y229667D01*
X62706Y228917D02*X64206D01*
X61956Y229667D02*X62706Y228917D01*
X45000Y225666D02*X66757D01*
X95083Y74171D02*Y70971D01*
X93483Y72571D02*X96683D01*
X95083Y93383D02*Y90183D01*
X93483Y91783D02*X96683D01*
X15000Y249267D02*Y246067D01*
X13400Y247667D02*X16600D01*
X135000Y249917D02*Y249167D01*
X136500Y247667D01*
X138000Y249167D01*
Y249917D02*Y249167D01*
X136500Y247667D02*Y243917D01*
X139801Y246917D02*X142051D01*
X139801Y243917D02*X142801D01*
X139801Y249917D02*Y243917D01*
Y249917D02*X142801D01*
X147603D02*X148353Y249167D01*
X145353Y249917D02*X147603D01*
X144603Y249167D02*X145353Y249917D01*
X144603Y249167D02*Y247667D01*
X145353Y246917D01*
X147603D01*
X148353Y246167D01*
Y244667D01*
X147603Y243917D02*X148353Y244667D01*
X145353Y243917D02*X147603D01*
X144603Y244667D02*X145353Y243917D01*
X135000Y240666D02*X150154D01*
X98000Y249167D02*X98750Y249917D01*
X101000D01*
X101750Y249167D01*
Y247667D01*
X98000Y243917D02*X101750Y247667D01*
X98000Y243917D02*X101750D01*
X98000Y240666D02*X103551D01*
X45000Y244667D02*X45750Y243917D01*
X45000Y249167D02*Y244667D01*
Y249167D02*X45750Y249917D01*
X47250D01*
X48000Y249167D01*
Y244667D01*
X47250Y243917D02*X48000Y244667D01*
X45750Y243917D02*X47250D01*
X45000Y245417D02*X48000Y248417D01*
X49801Y243917D02*X50551D01*
X52353Y244667D02*X53103Y243917D01*
X52353Y249167D02*Y244667D01*
Y249167D02*X53103Y249917D01*
X54603D01*
X55353Y249167D01*
Y244667D01*
X54603Y243917D02*X55353Y244667D01*
X53103Y243917D02*X54603D01*
X52353Y245417D02*X55353Y248417D01*
X57154Y249167D02*X57904Y249917D01*
X60154D01*
X60904Y249167D01*
Y247667D01*
X57154Y243917D02*X60904Y247667D01*
X57154Y243917D02*X60904D01*
X62706D02*X65706Y246917D01*
Y249167D02*Y246917D01*
X64956Y249917D02*X65706Y249167D01*
X63456Y249917D02*X64956D01*
X62706Y249167D02*X63456Y249917D01*
X62706Y249167D02*Y247667D01*
X63456Y246917D01*
X65706D01*
X45000Y240666D02*X67507D01*
X248900Y81517D02*Y79917D01*
Y81517D02*X250286Y82317D01*
X248900Y81517D02*X247514Y82317D01*
X139000Y116817D02*Y115217D01*
Y116817D02*X140386Y117617D01*
X139000Y116817D02*X137614Y117617D01*
X15000Y262667D02*Y261067D01*
Y262667D02*X16386Y263467D01*
X15000Y262667D02*X13614Y263467D01*
X135000Y264917D02*Y264167D01*
X136500Y262667D01*
X138000Y264167D01*
Y264917D02*Y264167D01*
X136500Y262667D02*Y258917D01*
X139801Y261917D02*X142051D01*
X139801Y258917D02*X142801D01*
X139801Y264917D02*Y258917D01*
Y264917D02*X142801D01*
X147603D02*X148353Y264167D01*
X145353Y264917D02*X147603D01*
X144603Y264167D02*X145353Y264917D01*
X144603Y264167D02*Y262667D01*
X145353Y261917D01*
X147603D01*
X148353Y261167D01*
Y259667D01*
X147603Y258917D02*X148353Y259667D01*
X145353Y258917D02*X147603D01*
X144603Y259667D02*X145353Y258917D01*
X135000Y255666D02*X150154D01*
X98000Y264167D02*X98750Y264917D01*
X101000D01*
X101750Y264167D01*
Y262667D01*
X98000Y258917D02*X101750Y262667D01*
X98000Y258917D02*X101750D01*
X98000Y255666D02*X103551D01*
X45000Y259667D02*X45750Y258917D01*
X45000Y264167D02*Y259667D01*
Y264167D02*X45750Y264917D01*
X47250D01*
X48000Y264167D01*
Y259667D01*
X47250Y258917D02*X48000Y259667D01*
X45750Y258917D02*X47250D01*
X45000Y260417D02*X48000Y263417D01*
X49801Y258917D02*X50551D01*
X52353Y259667D02*X53103Y258917D01*
X52353Y264167D02*Y259667D01*
Y264167D02*X53103Y264917D01*
X54603D01*
X55353Y264167D01*
Y259667D01*
X54603Y258917D02*X55353Y259667D01*
X53103Y258917D02*X54603D01*
X52353Y260417D02*X55353Y263417D01*
X57154Y264167D02*X57904Y264917D01*
X60154D01*
X60904Y264167D01*
Y262667D01*
X57154Y258917D02*X60904Y262667D01*
X57154Y258917D02*X60904D01*
X62706Y259667D02*X63456Y258917D01*
X62706Y264167D02*Y259667D01*
Y264167D02*X63456Y264917D01*
X64956D01*
X65706Y264167D01*
Y259667D01*
X64956Y258917D02*X65706Y259667D01*
X63456Y258917D02*X64956D01*
X62706Y260417D02*X65706Y263417D01*
X45000Y255666D02*X67507D01*
X3000Y279917D02*X3750Y279167D01*
X750Y279917D02*X3000D01*
X0Y279167D02*X750Y279917D01*
X0Y279167D02*Y277667D01*
X750Y276917D01*
X3000D01*
X3750Y276167D01*
Y274667D01*
X3000Y273917D02*X3750Y274667D01*
X750Y273917D02*X3000D01*
X0Y274667D02*X750Y273917D01*
X5551Y276917D02*Y274667D01*
X6301Y273917D01*
X8551Y276917D02*Y272417D01*
X7801Y271667D02*X8551Y272417D01*
X6301Y271667D02*X7801D01*
X5551Y272417D02*X6301Y271667D01*
Y273917D02*X7801D01*
X8551Y274667D01*
X11103Y276167D02*Y273917D01*
Y276167D02*X11853Y276917D01*
X12603D01*
X13353Y276167D01*
Y273917D01*
Y276167D02*X14103Y276917D01*
X14853D01*
X15603Y276167D01*
Y273917D01*
X10353Y276917D02*X11103Y276167D01*
X17404Y279917D02*Y273917D01*
Y274667D02*X18154Y273917D01*
X19654D01*
X20404Y274667D01*
Y276167D02*Y274667D01*
X19654Y276917D02*X20404Y276167D01*
X18154Y276917D02*X19654D01*
X17404Y276167D02*X18154Y276917D01*
X22206Y276167D02*Y274667D01*
Y276167D02*X22956Y276917D01*
X24456D01*
X25206Y276167D01*
Y274667D01*
X24456Y273917D02*X25206Y274667D01*
X22956Y273917D02*X24456D01*
X22206Y274667D02*X22956Y273917D01*
X27007Y279917D02*Y274667D01*
X27757Y273917D01*
X41750Y279917D02*Y273917D01*
X44000Y279917D02*X44750Y279167D01*
Y274667D01*
X44000Y273917D02*X44750Y274667D01*
X41000Y273917D02*X44000D01*
X41000Y279917D02*X44000D01*
X46551Y278417D02*Y277667D01*
Y276167D02*Y273917D01*
X50303Y276917D02*X51053Y276167D01*
X48803Y276917D02*X50303D01*
X48053Y276167D02*X48803Y276917D01*
X48053Y276167D02*Y274667D01*
X48803Y273917D01*
X51053Y276917D02*Y274667D01*
X51803Y273917D01*
X48803D02*X50303D01*
X51053Y274667D01*
X54354Y276167D02*Y273917D01*
Y276167D02*X55104Y276917D01*
X55854D01*
X56604Y276167D01*
Y273917D01*
Y276167D02*X57354Y276917D01*
X58104D01*
X58854Y276167D01*
Y273917D01*
X53604Y276917D02*X54354Y276167D01*
X60656Y273917D02*X61406D01*
X65907Y274667D02*X66657Y273917D01*
X65907Y279167D02*X66657Y279917D01*
X65907Y279167D02*Y274667D01*
X68459Y279917D02*X69959D01*
X69209D02*Y273917D01*
X68459D02*X69959D01*
X72510Y276167D02*Y273917D01*
Y276167D02*X73260Y276917D01*
X74010D01*
X74760Y276167D01*
Y273917D01*
X71760Y276917D02*X72510Y276167D01*
X77312Y276917D02*X79562D01*
X76562Y276167D02*X77312Y276917D01*
X76562Y276167D02*Y274667D01*
X77312Y273917D01*
X79562D01*
X81363Y279917D02*Y273917D01*
Y276167D02*X82113Y276917D01*
X83613D01*
X84363Y276167D01*
Y273917D01*
X86165Y279917D02*X86915Y279167D01*
Y274667D01*
X86165Y273917D02*X86915Y274667D01*
X95750Y273917D02*X98000D01*
X95000Y274667D02*X95750Y273917D01*
X95000Y279167D02*Y274667D01*
Y279167D02*X95750Y279917D01*
X98000D01*
X99801Y276167D02*Y274667D01*
Y276167D02*X100551Y276917D01*
X102051D01*
X102801Y276167D01*
Y274667D01*
X102051Y273917D02*X102801Y274667D01*
X100551Y273917D02*X102051D01*
X99801Y274667D02*X100551Y273917D01*
X104603Y276917D02*Y274667D01*
X105353Y273917D01*
X106853D01*
X107603Y274667D01*
Y276917D02*Y274667D01*
X110154Y276167D02*Y273917D01*
Y276167D02*X110904Y276917D01*
X111654D01*
X112404Y276167D01*
Y273917D01*
X109404Y276917D02*X110154Y276167D01*
X114956Y279917D02*Y274667D01*
X115706Y273917D01*
X114206Y277667D02*X115706D01*
X130750Y279917D02*Y273917D01*
X130000Y279917D02*X133000D01*
X133750Y279167D01*
Y277667D01*
X133000Y276917D02*X133750Y277667D01*
X130750Y276917D02*X133000D01*
X135551Y279917D02*Y274667D01*
X136301Y273917D01*
X140053Y276917D02*X140803Y276167D01*
X138553Y276917D02*X140053D01*
X137803Y276167D02*X138553Y276917D01*
X137803Y276167D02*Y274667D01*
X138553Y273917D01*
X140803Y276917D02*Y274667D01*
X141553Y273917D01*
X138553D02*X140053D01*
X140803Y274667D01*
X144104Y279917D02*Y274667D01*
X144854Y273917D01*
X143354Y277667D02*X144854D01*
X147106Y273917D02*X149356D01*
X146356Y274667D02*X147106Y273917D01*
X146356Y276167D02*Y274667D01*
Y276167D02*X147106Y276917D01*
X148606D01*
X149356Y276167D01*
X146356Y275417D02*X149356D01*
Y276167D02*Y275417D01*
X154157Y279917D02*Y273917D01*
X153407D02*X154157Y274667D01*
X151907Y273917D02*X153407D01*
X151157Y274667D02*X151907Y273917D01*
X151157Y276167D02*Y274667D01*
Y276167D02*X151907Y276917D01*
X153407D01*
X154157Y276167D01*
X157459Y276917D02*Y276167D01*
Y274667D02*Y273917D01*
X155959Y279167D02*Y278417D01*
Y279167D02*X156709Y279917D01*
X158209D01*
X158959Y279167D01*
Y278417D01*
X157459Y276917D02*X158959Y278417D01*
X0Y294917D02*X3000D01*
X1500D02*Y288917D01*
X4801Y294917D02*Y288917D01*
Y291167D02*X5551Y291917D01*
X7051D01*
X7801Y291167D01*
Y288917D01*
X10353D02*X12603D01*
X9603Y289667D02*X10353Y288917D01*
X9603Y291167D02*Y289667D01*
Y291167D02*X10353Y291917D01*
X11853D01*
X12603Y291167D01*
X9603Y290417D02*X12603D01*
Y291167D02*Y290417D01*
X15154Y291167D02*Y288917D01*
Y291167D02*X15904Y291917D01*
X17404D01*
X14404D02*X15154Y291167D01*
X19956Y288917D02*X22206D01*
X19206Y289667D02*X19956Y288917D01*
X19206Y291167D02*Y289667D01*
Y291167D02*X19956Y291917D01*
X21456D01*
X22206Y291167D01*
X19206Y290417D02*X22206D01*
Y291167D02*Y290417D01*
X28957Y291917D02*X29707Y291167D01*
X27457Y291917D02*X28957D01*
X26707Y291167D02*X27457Y291917D01*
X26707Y291167D02*Y289667D01*
X27457Y288917D01*
X29707Y291917D02*Y289667D01*
X30457Y288917D01*
X27457D02*X28957D01*
X29707Y289667D01*
X33009Y291167D02*Y288917D01*
Y291167D02*X33759Y291917D01*
X35259D01*
X32259D02*X33009Y291167D01*
X37810Y288917D02*X40060D01*
X37060Y289667D02*X37810Y288917D01*
X37060Y291167D02*Y289667D01*
Y291167D02*X37810Y291917D01*
X39310D01*
X40060Y291167D01*
X37060Y290417D02*X40060D01*
Y291167D02*Y290417D01*
X44562Y288917D02*X48312Y292667D01*
Y294917D02*Y292667D01*
X44562Y294917D02*X48312D01*
X55813D02*Y288917D01*
X55063D02*X55813Y289667D01*
X53563Y288917D02*X55063D01*
X52813Y289667D02*X53563Y288917D01*
X52813Y291167D02*Y289667D01*
Y291167D02*X53563Y291917D01*
X55063D01*
X55813Y291167D01*
X57615Y293417D02*Y292667D01*
Y291167D02*Y288917D01*
X59866Y294167D02*Y288917D01*
Y294167D02*X60616Y294917D01*
X61366D01*
X59116Y291917D02*X60616D01*
X63618Y294167D02*Y288917D01*
Y294167D02*X64368Y294917D01*
X65118D01*
X62868Y291917D02*X64368D01*
X67369Y288917D02*X69619D01*
X66619Y289667D02*X67369Y288917D01*
X66619Y291167D02*Y289667D01*
Y291167D02*X67369Y291917D01*
X68869D01*
X69619Y291167D01*
X66619Y290417D02*X69619D01*
Y291167D02*Y290417D01*
X72171Y291167D02*Y288917D01*
Y291167D02*X72921Y291917D01*
X74421D01*
X71421D02*X72171Y291167D01*
X76972Y288917D02*X79222D01*
X76222Y289667D02*X76972Y288917D01*
X76222Y291167D02*Y289667D01*
Y291167D02*X76972Y291917D01*
X78472D01*
X79222Y291167D01*
X76222Y290417D02*X79222D01*
Y291167D02*Y290417D01*
X81774Y291167D02*Y288917D01*
Y291167D02*X82524Y291917D01*
X83274D01*
X84024Y291167D01*
Y288917D01*
X81024Y291917D02*X81774Y291167D01*
X86575Y294917D02*Y289667D01*
X87325Y288917D01*
X85825Y292667D02*X87325D01*
X94527Y294917D02*Y288917D01*
X93777D02*X94527Y289667D01*
X92277Y288917D02*X93777D01*
X91527Y289667D02*X92277Y288917D01*
X91527Y291167D02*Y289667D01*
Y291167D02*X92277Y291917D01*
X93777D01*
X94527Y291167D01*
X97078D02*Y288917D01*
Y291167D02*X97828Y291917D01*
X99328D01*
X96328D02*X97078Y291167D01*
X101130Y293417D02*Y292667D01*
Y291167D02*Y288917D01*
X102631Y294917D02*Y289667D01*
X103381Y288917D01*
X104883Y294917D02*Y289667D01*
X105633Y288917D01*
X110584D02*X112834D01*
X113584Y289667D01*
X112834Y290417D02*X113584Y289667D01*
X110584Y290417D02*X112834D01*
X109834Y291167D02*X110584Y290417D01*
X109834Y291167D02*X110584Y291917D01*
X112834D01*
X113584Y291167D01*
X109834Y289667D02*X110584Y288917D01*
X115386Y293417D02*Y292667D01*
Y291167D02*Y288917D01*
X116887Y291917D02*X119887D01*
X116887Y288917D02*X119887Y291917D01*
X116887Y288917D02*X119887D01*
X122439D02*X124689D01*
X121689Y289667D02*X122439Y288917D01*
X121689Y291167D02*Y289667D01*
Y291167D02*X122439Y291917D01*
X123939D01*
X124689Y291167D01*
X121689Y290417D02*X124689D01*
Y291167D02*Y290417D01*
X127240Y288917D02*X129490D01*
X130240Y289667D01*
X129490Y290417D02*X130240Y289667D01*
X127240Y290417D02*X129490D01*
X126490Y291167D02*X127240Y290417D01*
X126490Y291167D02*X127240Y291917D01*
X129490D01*
X130240Y291167D01*
X126490Y289667D02*X127240Y288917D01*
X134742Y291917D02*Y289667D01*
X135492Y288917D01*
X136992D01*
X137742Y289667D01*
Y291917D02*Y289667D01*
X140293Y288917D02*X142543D01*
X143293Y289667D01*
X142543Y290417D02*X143293Y289667D01*
X140293Y290417D02*X142543D01*
X139543Y291167D02*X140293Y290417D01*
X139543Y291167D02*X140293Y291917D01*
X142543D01*
X143293Y291167D01*
X139543Y289667D02*X140293Y288917D01*
X145845D02*X148095D01*
X145095Y289667D02*X145845Y288917D01*
X145095Y291167D02*Y289667D01*
Y291167D02*X145845Y291917D01*
X147345D01*
X148095Y291167D01*
X145095Y290417D02*X148095D01*
Y291167D02*Y290417D01*
X152896Y294917D02*Y288917D01*
X152146D02*X152896Y289667D01*
X150646Y288917D02*X152146D01*
X149896Y289667D02*X150646Y288917D01*
X149896Y291167D02*Y289667D01*
Y291167D02*X150646Y291917D01*
X152146D01*
X152896Y291167D01*
X157398Y293417D02*Y292667D01*
Y291167D02*Y288917D01*
X159649Y291167D02*Y288917D01*
Y291167D02*X160399Y291917D01*
X161149D01*
X161899Y291167D01*
Y288917D01*
X158899Y291917D02*X159649Y291167D01*
X167151Y294917D02*Y289667D01*
X167901Y288917D01*
X166401Y292667D02*X167901D01*
X169402Y294917D02*Y288917D01*
Y291167D02*X170152Y291917D01*
X171652D01*
X172402Y291167D01*
Y288917D01*
X174204Y293417D02*Y292667D01*
Y291167D02*Y288917D01*
X176455D02*X178705D01*
X179455Y289667D01*
X178705Y290417D02*X179455Y289667D01*
X176455Y290417D02*X178705D01*
X175705Y291167D02*X176455Y290417D01*
X175705Y291167D02*X176455Y291917D01*
X178705D01*
X179455Y291167D01*
X175705Y289667D02*X176455Y288917D01*
X183957Y294917D02*Y289667D01*
X184707Y288917D01*
X188458Y291917D02*X189208Y291167D01*
X186958Y291917D02*X188458D01*
X186208Y291167D02*X186958Y291917D01*
X186208Y291167D02*Y289667D01*
X186958Y288917D01*
X189208Y291917D02*Y289667D01*
X189958Y288917D01*
X186958D02*X188458D01*
X189208Y289667D01*
X191760Y291917D02*Y289667D01*
X192510Y288917D01*
X194760Y291917D02*Y287417D01*
X194010Y286667D02*X194760Y287417D01*
X192510Y286667D02*X194010D01*
X191760Y287417D02*X192510Y286667D01*
Y288917D02*X194010D01*
X194760Y289667D01*
X196561Y291167D02*Y289667D01*
Y291167D02*X197311Y291917D01*
X198811D01*
X199561Y291167D01*
Y289667D01*
X198811Y288917D02*X199561Y289667D01*
X197311Y288917D02*X198811D01*
X196561Y289667D02*X197311Y288917D01*
X201363Y291917D02*Y289667D01*
X202113Y288917D01*
X203613D01*
X204363Y289667D01*
Y291917D02*Y289667D01*
X206914Y294917D02*Y289667D01*
X207664Y288917D01*
X206164Y292667D02*X207664D01*
X209166Y287417D02*X210666Y288917D01*
X217417Y294917D02*X218167Y294167D01*
X215917Y294917D02*X217417D01*
X215167Y294167D02*X215917Y294917D01*
X215167Y294167D02*Y289667D01*
X215917Y288917D01*
X217417Y291917D02*X218167Y291167D01*
X215167Y291917D02*X217417D01*
X215917Y288917D02*X217417D01*
X218167Y289667D01*
Y291167D02*Y289667D01*
X219969Y294917D02*X222969D01*
X219969D02*Y291917D01*
X220719Y292667D01*
X222219D01*
X222969Y291917D01*
Y289667D01*
X222219Y288917D02*X222969Y289667D01*
X220719Y288917D02*X222219D01*
X219969Y289667D02*X220719Y288917D01*
X227470Y294917D02*Y288917D01*
Y291167D02*X228220Y291917D01*
X229720D01*
X230470Y291167D01*
Y288917D01*
X232272Y291167D02*Y289667D01*
Y291167D02*X233022Y291917D01*
X234522D01*
X235272Y291167D01*
Y289667D01*
X234522Y288917D02*X235272Y289667D01*
X233022Y288917D02*X234522D01*
X232272Y289667D02*X233022Y288917D01*
X237073Y294917D02*Y289667D01*
X237823Y288917D01*
X240075D02*X242325D01*
X239325Y289667D02*X240075Y288917D01*
X239325Y291167D02*Y289667D01*
Y291167D02*X240075Y291917D01*
X241575D01*
X242325Y291167D01*
X239325Y290417D02*X242325D01*
Y291167D02*Y290417D01*
X244876Y288917D02*X247126D01*
X247876Y289667D01*
X247126Y290417D02*X247876Y289667D01*
X244876Y290417D02*X247126D01*
X244126Y291167D02*X244876Y290417D01*
X244126Y291167D02*X244876Y291917D01*
X247126D01*
X247876Y291167D01*
X244126Y289667D02*X244876Y288917D01*
X253128Y294917D02*Y289667D01*
X253878Y288917D01*
X252378Y292667D02*X253878D01*
X255379Y291167D02*Y289667D01*
Y291167D02*X256129Y291917D01*
X257629D01*
X258379Y291167D01*
Y289667D01*
X257629Y288917D02*X258379Y289667D01*
X256129Y288917D02*X257629D01*
X255379Y289667D02*X256129Y288917D01*
X260931Y294917D02*Y289667D01*
X261681Y288917D01*
X260181Y292667D02*X261681D01*
X265432Y291917D02*X266182Y291167D01*
X263932Y291917D02*X265432D01*
X263182Y291167D02*X263932Y291917D01*
X263182Y291167D02*Y289667D01*
X263932Y288917D01*
X266182Y291917D02*Y289667D01*
X266932Y288917D01*
X263932D02*X265432D01*
X266182Y289667D01*
X268734Y294917D02*Y289667D01*
X269484Y288917D01*
G54D12*X324803Y9842D02*Y151574D01*
X9843Y9842D02*X324803D01*
X9843Y151574D02*Y9842D01*
Y151574D02*X324803D01*
G54D47*X80971Y-9500D02*X83971D01*
X84721Y-8750D01*
Y-7250D02*Y-8750D01*
X83971Y-6500D02*X84721Y-7250D01*
X81721Y-6500D02*X83971D01*
X81721Y-3500D02*Y-9500D01*
X80971Y-3500D02*X83971D01*
X84721Y-4250D01*
Y-5750D01*
X83971Y-6500D02*X84721Y-5750D01*
X86522Y-7250D02*Y-8750D01*
Y-7250D02*X87272Y-6500D01*
X88772D01*
X89522Y-7250D01*
Y-8750D01*
X88772Y-9500D02*X89522Y-8750D01*
X87272Y-9500D02*X88772D01*
X86522Y-8750D02*X87272Y-9500D01*
X93574Y-6500D02*X94324Y-7250D01*
X92074Y-6500D02*X93574D01*
X91324Y-7250D02*X92074Y-6500D01*
X91324Y-7250D02*Y-8750D01*
X92074Y-9500D01*
X94324Y-6500D02*Y-8750D01*
X95074Y-9500D01*
X92074D02*X93574D01*
X94324Y-8750D01*
X97625Y-7250D02*Y-9500D01*
Y-7250D02*X98375Y-6500D01*
X99875D01*
X96875D02*X97625Y-7250D01*
X104677Y-3500D02*Y-9500D01*
X103927D02*X104677Y-8750D01*
X102427Y-9500D02*X103927D01*
X101677Y-8750D02*X102427Y-9500D01*
X101677Y-7250D02*Y-8750D01*
Y-7250D02*X102427Y-6500D01*
X103927D01*
X104677Y-7250D01*
X109178D02*Y-8750D01*
Y-7250D02*X109928Y-6500D01*
X111428D01*
X112178Y-7250D01*
Y-8750D01*
X111428Y-9500D02*X112178Y-8750D01*
X109928Y-9500D02*X111428D01*
X109178Y-8750D02*X109928Y-9500D01*
X113980Y-6500D02*Y-8750D01*
X114730Y-9500D01*
X116230D01*
X116980Y-8750D01*
Y-6500D02*Y-8750D01*
X119531Y-3500D02*Y-8750D01*
X120281Y-9500D01*
X118781Y-5750D02*X120281D01*
X121783Y-3500D02*Y-8750D01*
X122533Y-9500D01*
X124034Y-5000D02*Y-5750D01*
Y-7250D02*Y-9500D01*
X126286Y-7250D02*Y-9500D01*
Y-7250D02*X127036Y-6500D01*
X127786D01*
X128536Y-7250D01*
Y-9500D01*
X125536Y-6500D02*X126286Y-7250D01*
X131087Y-9500D02*X133337D01*
X130337Y-8750D02*X131087Y-9500D01*
X130337Y-7250D02*Y-8750D01*
Y-7250D02*X131087Y-6500D01*
X132587D01*
X133337Y-7250D01*
X130337Y-8000D02*X133337D01*
Y-7250D02*Y-8000D01*
X137839Y-5000D02*Y-5750D01*
Y-7250D02*Y-9500D01*
X140090D02*X142340D01*
X143090Y-8750D01*
X142340Y-8000D02*X143090Y-8750D01*
X140090Y-8000D02*X142340D01*
X139340Y-7250D02*X140090Y-8000D01*
X139340Y-7250D02*X140090Y-6500D01*
X142340D01*
X143090Y-7250D01*
X139340Y-8750D02*X140090Y-9500D01*
X148342Y-3500D02*Y-8750D01*
X149092Y-9500D01*
X147592Y-5750D02*X149092D01*
X150593Y-3500D02*Y-9500D01*
Y-7250D02*X151343Y-6500D01*
X152843D01*
X153593Y-7250D01*
Y-9500D01*
X156145D02*X158395D01*
X155395Y-8750D02*X156145Y-9500D01*
X155395Y-7250D02*Y-8750D01*
Y-7250D02*X156145Y-6500D01*
X157645D01*
X158395Y-7250D01*
X155395Y-8000D02*X158395D01*
Y-7250D02*Y-8000D01*
X163646Y-6500D02*X165896D01*
X162896Y-7250D02*X163646Y-6500D01*
X162896Y-7250D02*Y-8750D01*
X163646Y-9500D01*
X165896D01*
X168448D02*X170698D01*
X167698Y-8750D02*X168448Y-9500D01*
X167698Y-7250D02*Y-8750D01*
Y-7250D02*X168448Y-6500D01*
X169948D01*
X170698Y-7250D01*
X167698Y-8000D02*X170698D01*
Y-7250D02*Y-8000D01*
X173249Y-7250D02*Y-9500D01*
Y-7250D02*X173999Y-6500D01*
X174749D01*
X175499Y-7250D01*
Y-9500D01*
X172499Y-6500D02*X173249Y-7250D01*
X178051Y-3500D02*Y-8750D01*
X178801Y-9500D01*
X177301Y-5750D02*X178801D01*
X181052Y-9500D02*X183302D01*
X180302Y-8750D02*X181052Y-9500D01*
X180302Y-7250D02*Y-8750D01*
Y-7250D02*X181052Y-6500D01*
X182552D01*
X183302Y-7250D01*
X180302Y-8000D02*X183302D01*
Y-7250D02*Y-8000D01*
X185854Y-7250D02*Y-9500D01*
Y-7250D02*X186604Y-6500D01*
X188104D01*
X185104D02*X185854Y-7250D01*
X189905Y-3500D02*Y-8750D01*
X190655Y-9500D01*
X192157Y-5000D02*Y-5750D01*
Y-7250D02*Y-9500D01*
X194408Y-7250D02*Y-9500D01*
Y-7250D02*X195158Y-6500D01*
X195908D01*
X196658Y-7250D01*
Y-9500D01*
X193658Y-6500D02*X194408Y-7250D01*
X199210Y-9500D02*X201460D01*
X198460Y-8750D02*X199210Y-9500D01*
X198460Y-7250D02*Y-8750D01*
Y-7250D02*X199210Y-6500D01*
X200710D01*
X201460Y-7250D01*
X198460Y-8000D02*X201460D01*
Y-7250D02*Y-8000D01*
X205961Y-7250D02*Y-8750D01*
Y-7250D02*X206711Y-6500D01*
X208211D01*
X208961Y-7250D01*
Y-8750D01*
X208211Y-9500D02*X208961Y-8750D01*
X206711Y-9500D02*X208211D01*
X205961Y-8750D02*X206711Y-9500D01*
X211513Y-4250D02*Y-9500D01*
Y-4250D02*X212263Y-3500D01*
X213013D01*
X210763Y-6500D02*X212263D01*
X217964Y-3500D02*Y-8750D01*
X218714Y-9500D01*
X217214Y-5750D02*X218714D01*
X220216Y-3500D02*Y-9500D01*
Y-7250D02*X220966Y-6500D01*
X222466D01*
X223216Y-7250D01*
Y-9500D01*
X225017Y-5000D02*Y-5750D01*
Y-7250D02*Y-9500D01*
X227269D02*X229519D01*
X230269Y-8750D01*
X229519Y-8000D02*X230269Y-8750D01*
X227269Y-8000D02*X229519D01*
X226519Y-7250D02*X227269Y-8000D01*
X226519Y-7250D02*X227269Y-6500D01*
X229519D01*
X230269Y-7250D01*
X226519Y-8750D02*X227269Y-9500D01*
X235520Y-7250D02*Y-11750D01*
X234770Y-6500D02*X235520Y-7250D01*
X236270Y-6500D01*
X237770D01*
X238520Y-7250D01*
Y-8750D01*
X237770Y-9500D02*X238520Y-8750D01*
X236270Y-9500D02*X237770D01*
X235520Y-8750D02*X236270Y-9500D01*
X242572Y-6500D02*X243322Y-7250D01*
X241072Y-6500D02*X242572D01*
X240322Y-7250D02*X241072Y-6500D01*
X240322Y-7250D02*Y-8750D01*
X241072Y-9500D01*
X243322Y-6500D02*Y-8750D01*
X244072Y-9500D01*
X241072D02*X242572D01*
X243322Y-8750D01*
X246623Y-3500D02*Y-8750D01*
X247373Y-9500D01*
X245873Y-5750D02*X247373D01*
X248875Y-3500D02*Y-9500D01*
Y-7250D02*X249625Y-6500D01*
X251125D01*
X251875Y-7250D01*
Y-9500D01*
X200750Y189917D02*Y183917D01*
X203000Y189917D02*X203750Y189167D01*
Y184667D01*
X203000Y183917D02*X203750Y184667D01*
X200000Y183917D02*X203000D01*
X200000Y189917D02*X203000D01*
X207801Y186917D02*X208551Y186167D01*
X206301Y186917D02*X207801D01*
X205551Y186167D02*X206301Y186917D01*
X205551Y186167D02*Y184667D01*
X206301Y183917D01*
X208551Y186917D02*Y184667D01*
X209301Y183917D01*
X206301D02*X207801D01*
X208551Y184667D01*
X211853Y189917D02*Y184667D01*
X212603Y183917D01*
X211103Y187667D02*X212603D01*
X214854Y183917D02*X217104D01*
X214104Y184667D02*X214854Y183917D01*
X214104Y186167D02*Y184667D01*
Y186167D02*X214854Y186917D01*
X216354D01*
X217104Y186167D01*
X214104Y185417D02*X217104D01*
Y186167D02*Y185417D01*
X218906Y187667D02*X219656D01*
X218906Y186167D02*X219656D01*
X224157Y189917D02*X227157D01*
X225657D02*Y183917D01*
X228959Y186917D02*Y184667D01*
X229709Y183917D01*
X231209D01*
X231959Y184667D01*
Y186917D02*Y184667D01*
X234510Y183917D02*X236760D01*
X233760Y184667D02*X234510Y183917D01*
X233760Y186167D02*Y184667D01*
Y186167D02*X234510Y186917D01*
X236010D01*
X236760Y186167D01*
X233760Y185417D02*X236760D01*
Y186167D02*Y185417D01*
X241262Y184667D02*X242012Y183917D01*
X241262Y189167D02*Y184667D01*
Y189167D02*X242012Y189917D01*
X243512D01*
X244262Y189167D01*
Y184667D01*
X243512Y183917D02*X244262Y184667D01*
X242012Y183917D02*X243512D01*
X241262Y185417D02*X244262Y188417D01*
X246813Y183917D02*X248313D01*
X247563Y189917D02*Y183917D01*
X246063Y188417D02*X247563Y189917D01*
X252815D02*Y183917D01*
Y189917D02*X255065Y187667D01*
X257315Y189917D01*
Y183917D01*
X261366Y186917D02*X262116Y186167D01*
X259866Y186917D02*X261366D01*
X259116Y186167D02*X259866Y186917D01*
X259116Y186167D02*Y184667D01*
X259866Y183917D01*
X262116Y186917D02*Y184667D01*
X262866Y183917D01*
X259866D02*X261366D01*
X262116Y184667D01*
X264668Y186917D02*Y184667D01*
X265418Y183917D01*
X267668Y186917D02*Y182417D01*
X266918Y181667D02*X267668Y182417D01*
X265418Y181667D02*X266918D01*
X264668Y182417D02*X265418Y181667D01*
Y183917D02*X266918D01*
X267668Y184667D01*
X272169Y189167D02*X272919Y189917D01*
X275169D01*
X275919Y189167D01*
Y187667D01*
X272169Y183917D02*X275919Y187667D01*
X272169Y183917D02*X275919D01*
X277721Y184667D02*X278471Y183917D01*
X277721Y189167D02*Y184667D01*
Y189167D02*X278471Y189917D01*
X279971D01*
X280721Y189167D01*
Y184667D01*
X279971Y183917D02*X280721Y184667D01*
X278471Y183917D02*X279971D01*
X277721Y185417D02*X280721Y188417D01*
X283272Y183917D02*X284772D01*
X284022Y189917D02*Y183917D01*
X282522Y188417D02*X284022Y189917D01*
X286574Y189167D02*X287324Y189917D01*
X289574D01*
X290324Y189167D01*
Y187667D01*
X286574Y183917D02*X290324Y187667D01*
X286574Y183917D02*X290324D01*
X295575D02*X297075D01*
X296325Y189917D02*Y183917D01*
X294825Y188417D02*X296325Y189917D01*
X298877Y184667D02*X299627Y183917D01*
X298877Y189167D02*Y184667D01*
Y189167D02*X299627Y189917D01*
X301127D01*
X301877Y189167D01*
Y184667D01*
X301127Y183917D02*X301877Y184667D01*
X299627Y183917D02*X301127D01*
X298877Y185417D02*X301877Y188417D01*
X303678Y187667D02*X304428D01*
X303678Y186167D02*X304428D01*
X306230Y189167D02*X306980Y189917D01*
X309230D01*
X309980Y189167D01*
Y187667D01*
X306230Y183917D02*X309980Y187667D01*
X306230Y183917D02*X309980D01*
X312531D02*X314031D01*
X313281Y189917D02*Y183917D01*
X311781Y188417D02*X313281Y189917D01*
X315833Y187667D02*X316583D01*
X315833Y186167D02*X316583D01*
X318384Y186917D02*X321384Y189917D01*
X318384Y186917D02*X322134D01*
X321384Y189917D02*Y183917D01*
X323936Y189167D02*X324686Y189917D01*
X326186D01*
X326936Y189167D01*
Y184667D01*
X326186Y183917D02*X326936Y184667D01*
X324686Y183917D02*X326186D01*
X323936Y184667D02*X324686Y183917D01*
Y186917D02*X326936D01*
X332187Y189917D02*Y183917D01*
X331437Y189917D02*X334437D01*
X335187Y189167D01*
Y187667D01*
X334437Y186917D02*X335187Y187667D01*
X332187Y186917D02*X334437D01*
X336989Y189917D02*Y183917D01*
Y189917D02*X339239Y187667D01*
X341489Y189917D01*
Y183917D01*
X348990Y189917D02*X349740Y189167D01*
X346740Y189917D02*X348990D01*
X345990Y189167D02*X346740Y189917D01*
X345990Y189167D02*Y184667D01*
X346740Y183917D01*
X348990D01*
X349740Y184667D01*
Y186167D02*Y184667D01*
X348990Y186917D02*X349740Y186167D01*
X347490Y186917D02*X348990D01*
X351542Y189917D02*Y183917D01*
Y189917D02*X353792Y187667D01*
X356042Y189917D01*
Y183917D01*
X357843Y189917D02*X360843D01*
X359343D02*Y183917D01*
X365345Y189917D02*Y184667D01*
X366095Y183917D01*
X367595D01*
X368345Y184667D01*
Y189917D02*Y184667D01*
X370146Y189917D02*X373146D01*
X371646D02*Y183917D01*
X375698D02*X377948D01*
X374948Y184667D02*X375698Y183917D01*
X374948Y189167D02*Y184667D01*
Y189167D02*X375698Y189917D01*
X377948D01*
X200000Y204167D02*Y198917D01*
Y204167D02*X200750Y204917D01*
X203000D01*
X203750Y204167D01*
Y198917D01*
X200000Y201917D02*X203750D01*
X205551D02*Y199667D01*
X206301Y198917D01*
X207801D01*
X208551Y199667D01*
Y201917D02*Y199667D01*
X211103Y204917D02*Y199667D01*
X211853Y198917D01*
X210353Y202667D02*X211853D01*
X213354Y204917D02*Y198917D01*
Y201167D02*X214104Y201917D01*
X215604D01*
X216354Y201167D01*
Y198917D01*
X218156Y201167D02*Y199667D01*
Y201167D02*X218906Y201917D01*
X220406D01*
X221156Y201167D01*
Y199667D01*
X220406Y198917D02*X221156Y199667D01*
X218906Y198917D02*X220406D01*
X218156Y199667D02*X218906Y198917D01*
X223707Y201167D02*Y198917D01*
Y201167D02*X224457Y201917D01*
X225957D01*
X222957D02*X223707Y201167D01*
X227759Y202667D02*X228509D01*
X227759Y201167D02*X228509D01*
X233010Y201917D02*X235260D01*
X233010Y198917D02*X236010D01*
X233010Y204917D02*Y198917D01*
Y204917D02*X236010D01*
X240812D02*Y198917D01*
X240062D02*X240812Y199667D01*
X238562Y198917D02*X240062D01*
X237812Y199667D02*X238562Y198917D01*
X237812Y201167D02*Y199667D01*
Y201167D02*X238562Y201917D01*
X240062D01*
X240812Y201167D01*
X242613Y201917D02*Y199667D01*
X243363Y198917D01*
X244113D01*
X244863Y199667D01*
Y201917D02*Y199667D01*
X245613Y198917D01*
X246363D01*
X247113Y199667D01*
Y201917D02*Y199667D01*
X251165Y201917D02*X251915Y201167D01*
X249665Y201917D02*X251165D01*
X248915Y201167D02*X249665Y201917D01*
X248915Y201167D02*Y199667D01*
X249665Y198917D01*
X251915Y201917D02*Y199667D01*
X252665Y198917D01*
X249665D02*X251165D01*
X251915Y199667D01*
X255216Y201167D02*Y198917D01*
Y201167D02*X255966Y201917D01*
X257466D01*
X254466D02*X255216Y201167D01*
X262268Y204917D02*Y198917D01*
X261518D02*X262268Y199667D01*
X260018Y198917D02*X261518D01*
X259268Y199667D02*X260018Y198917D01*
X259268Y201167D02*Y199667D01*
Y201167D02*X260018Y201917D01*
X261518D01*
X262268Y201167D01*
X267519Y198917D02*X269769D01*
X266769Y199667D02*X267519Y198917D01*
X266769Y204167D02*Y199667D01*
Y204167D02*X267519Y204917D01*
X269769D01*
X271571Y201167D02*Y199667D01*
Y201167D02*X272321Y201917D01*
X273821D01*
X274571Y201167D01*
Y199667D01*
X273821Y198917D02*X274571Y199667D01*
X272321Y198917D02*X273821D01*
X271571Y199667D02*X272321Y198917D01*
X277122Y201167D02*Y198917D01*
Y201167D02*X277872Y201917D01*
X278622D01*
X279372Y201167D01*
Y198917D01*
Y201167D02*X280122Y201917D01*
X280872D01*
X281622Y201167D01*
Y198917D01*
X276372Y201917D02*X277122Y201167D01*
X284174Y198917D02*X286424D01*
X283424Y199667D02*X284174Y198917D01*
X283424Y201167D02*Y199667D01*
Y201167D02*X284174Y201917D01*
X285674D01*
X286424Y201167D01*
X283424Y200417D02*X286424D01*
Y201167D02*Y200417D01*
X288975Y201167D02*Y198917D01*
Y201167D02*X289725Y201917D01*
X291225D01*
X288225D02*X288975Y201167D01*
X200000Y219917D02*X203000D01*
X201500D02*Y213917D01*
X204801Y218417D02*Y217667D01*
Y216167D02*Y213917D01*
X207053Y219917D02*Y214667D01*
X207803Y213917D01*
X206303Y217667D02*X207803D01*
X209304Y219917D02*Y214667D01*
X210054Y213917D01*
X212306D02*X214556D01*
X211556Y214667D02*X212306Y213917D01*
X211556Y216167D02*Y214667D01*
Y216167D02*X212306Y216917D01*
X213806D01*
X214556Y216167D01*
X211556Y215417D02*X214556D01*
Y216167D02*Y215417D01*
X216357Y217667D02*X217107D01*
X216357Y216167D02*X217107D01*
X221609Y216917D02*Y215417D01*
X223109Y213917D01*
X224609Y215417D01*
Y216917D02*Y215417D01*
X227160Y219917D02*Y214667D01*
X227910Y213917D01*
X226410Y217667D02*X227910D01*
X230162Y213917D02*X231662D01*
X230912Y219917D02*Y213917D01*
X229412Y218417D02*X230912Y219917D01*
X233463Y214667D02*X234213Y213917D01*
X233463Y219167D02*Y214667D01*
Y219167D02*X234213Y219917D01*
X235713D01*
X236463Y219167D01*
Y214667D01*
X235713Y213917D02*X236463Y214667D01*
X234213Y213917D02*X235713D01*
X233463Y215417D02*X236463Y218417D01*
X238265Y214667D02*X239015Y213917D01*
X238265Y219167D02*Y214667D01*
Y219167D02*X239015Y219917D01*
X240515D01*
X241265Y219167D01*
Y214667D01*
X240515Y213917D02*X241265Y214667D01*
X239015Y213917D02*X240515D01*
X238265Y215417D02*X241265Y218417D01*
X243066Y219917D02*Y214667D01*
X243816Y213917D01*
X246068Y216917D02*X248318D01*
X245318Y216167D02*X246068Y216917D01*
X245318Y216167D02*Y214667D01*
X246068Y213917D01*
X248318D01*
X253119Y219917D02*Y213917D01*
X252369D02*X253119Y214667D01*
X250869Y213917D02*X252369D01*
X250119Y214667D02*X250869Y213917D01*
X250119Y216167D02*Y214667D01*
Y216167D02*X250869Y216917D01*
X252369D01*
X253119Y216167D01*
X254921Y214667D02*X255671Y213917D01*
X254921Y216167D02*Y214667D01*
Y216167D02*X255671Y216917D01*
X257171D01*
X257921Y216167D01*
Y214667D01*
X257171Y213917D02*X257921Y214667D01*
X255671Y213917D02*X257171D01*
X254921Y217667D02*X255671Y216917D01*
X254921Y219167D02*Y217667D01*
Y219167D02*X255671Y219917D01*
X257171D01*
X257921Y219167D01*
Y217667D01*
X257171Y216917D02*X257921Y217667D01*
X259722Y216917D02*X262722Y219917D01*
X259722Y216917D02*X263472D01*
X262722Y219917D02*Y213917D01*
X267974Y216917D02*X270974D01*
X275475Y219917D02*Y213917D01*
Y219917D02*X278475D01*
X275475Y216917D02*X277725D01*
X282527D02*X283277Y216167D01*
X281027Y216917D02*X282527D01*
X280277Y216167D02*X281027Y216917D01*
X280277Y216167D02*Y214667D01*
X281027Y213917D01*
X283277Y216917D02*Y214667D01*
X284027Y213917D01*
X281027D02*X282527D01*
X283277Y214667D01*
X285828Y219917D02*Y213917D01*
Y214667D02*X286578Y213917D01*
X288078D01*
X288828Y214667D01*
Y216167D02*Y214667D01*
X288078Y216917D02*X288828Y216167D01*
X286578Y216917D02*X288078D01*
X285828Y216167D02*X286578Y216917D01*
X291380Y216167D02*Y213917D01*
Y216167D02*X292130Y216917D01*
X293630D01*
X290630D02*X291380Y216167D01*
X295431Y218417D02*Y217667D01*
Y216167D02*Y213917D01*
X297683Y216917D02*X299933D01*
X296933Y216167D02*X297683Y216917D01*
X296933Y216167D02*Y214667D01*
X297683Y213917D01*
X299933D01*
X303984Y216917D02*X304734Y216167D01*
X302484Y216917D02*X303984D01*
X301734Y216167D02*X302484Y216917D01*
X301734Y216167D02*Y214667D01*
X302484Y213917D01*
X304734Y216917D02*Y214667D01*
X305484Y213917D01*
X302484D02*X303984D01*
X304734Y214667D01*
X308036Y219917D02*Y214667D01*
X308786Y213917D01*
X307286Y217667D02*X308786D01*
X310287Y218417D02*Y217667D01*
Y216167D02*Y213917D01*
X311789Y216167D02*Y214667D01*
Y216167D02*X312539Y216917D01*
X314039D01*
X314789Y216167D01*
Y214667D01*
X314039Y213917D02*X314789Y214667D01*
X312539Y213917D02*X314039D01*
X311789Y214667D02*X312539Y213917D01*
X317340Y216167D02*Y213917D01*
Y216167D02*X318090Y216917D01*
X318840D01*
X319590Y216167D01*
Y213917D01*
X316590Y216917D02*X317340Y216167D01*
X324842Y219917D02*Y213917D01*
X327092Y219917D02*X327842Y219167D01*
Y214667D01*
X327092Y213917D02*X327842Y214667D01*
X324092Y213917D02*X327092D01*
X324092Y219917D02*X327092D01*
X330393Y216167D02*Y213917D01*
Y216167D02*X331143Y216917D01*
X332643D01*
X329643D02*X330393Y216167D01*
X336695Y216917D02*X337445Y216167D01*
X335195Y216917D02*X336695D01*
X334445Y216167D02*X335195Y216917D01*
X334445Y216167D02*Y214667D01*
X335195Y213917D01*
X337445Y216917D02*Y214667D01*
X338195Y213917D01*
X335195D02*X336695D01*
X337445Y214667D01*
X339996Y216917D02*Y214667D01*
X340746Y213917D01*
X341496D01*
X342246Y214667D01*
Y216917D02*Y214667D01*
X342996Y213917D01*
X343746D01*
X344496Y214667D01*
Y216917D02*Y214667D01*
X346298Y218417D02*Y217667D01*
Y216167D02*Y213917D01*
X348549Y216167D02*Y213917D01*
Y216167D02*X349299Y216917D01*
X350049D01*
X350799Y216167D01*
Y213917D01*
X347799Y216917D02*X348549Y216167D01*
X354851Y216917D02*X355601Y216167D01*
X353351Y216917D02*X354851D01*
X352601Y216167D02*X353351Y216917D01*
X352601Y216167D02*Y214667D01*
X353351Y213917D01*
X354851D01*
X355601Y214667D01*
X352601Y212417D02*X353351Y211667D01*
X354851D01*
X355601Y212417D01*
Y216917D02*Y212417D01*
M02*
