G04 start of page 2 for group 0 idx 0 *
G04 Title: vt100lcd84, component *
G04 Creator: pcb 20091103 *
G04 CreationDate: Tue 01 May 2012 10:21:43 PM GMT UTC *
G04 For: ecomer *
G04 Format: Gerber/RS-274X *
G04 PCB-Dimensions: 334646 161417 *
G04 PCB-Coordinate-Origin: lower left *
%MOIN*%
%FSLAX25Y25*%
%LNFRONT*%
%ADD11C,0.0250*%
%ADD12C,0.0100*%
%ADD13C,0.0150*%
%ADD14C,0.0200*%
%ADD15C,0.0810*%
%ADD16C,0.0600*%
%ADD17C,0.0550*%
%ADD18C,0.1630*%
%ADD19C,0.0800*%
%ADD20C,0.0984*%
%ADD21C,0.0630*%
%ADD22C,0.0720*%
%ADD23C,0.0650*%
%ADD24C,0.0787*%
%ADD25C,0.0460*%
%ADD26C,0.0630*%
%ADD27R,0.0630X0.0630*%
%ADD28C,0.0350*%
%ADD29C,0.0290*%
%ADD30C,0.0960*%
%ADD31C,0.0394*%
%ADD32C,0.0420*%
%ADD33C,0.0417*%
G54D11*X174000Y27417D02*X262000D01*
G54D12*X208000Y38417D02*X211000Y41417D01*
Y64912D01*
X210787D01*
Y66199D02*X211000Y64912D01*
X210787Y66199D01*
X220787Y94204D02*X213000Y86417D01*
X194000D01*
X210787Y93204D02*X207000Y89417D01*
X225600Y82217D02*X224000Y80617D01*
X194500D01*
X225600Y107817D02*Y82217D01*
X239300Y75217D02*X194000D01*
X191400Y72617D01*
X190787Y67025D01*
X194500Y80617D02*X186200Y72317D01*
X181300D01*
X180787Y66925D01*
G54D11*X292290Y141205D02*X293290Y142205D01*
X292755Y141205D02*X292290D01*
X292755Y142205D02*X293290D01*
X253110Y142126D02*Y135807D01*
X258800Y130117D01*
G54D12*X243200Y126517D02*Y142036D01*
G54D11*X258800Y130117D02*X289900D01*
X293500Y133717D01*
Y141736D01*
X293110Y142126D01*
X259870Y89417D02*X259685Y89602D01*
Y89417D01*
X259870D01*
X237597Y89602D02*X270715D01*
X262000Y27417D02*X278000Y43417D01*
Y70480D01*
X278291Y70771D01*
X237597Y89602D02*X230787Y96412D01*
G54D12*X248900Y81517D02*X245600D01*
X239300Y75217D01*
G54D11*X270715Y89602D02*X278200Y82117D01*
Y70862D01*
X278291Y70771D01*
G54D13*X200787Y105630D02*X194000Y112417D01*
G54D12*X225600Y107617D02*Y108917D01*
X243200Y126517D01*
X252690Y140945D02*X252755D01*
X193400Y141836D02*X193110Y142126D01*
X252755Y141005D02*X252690Y140945D01*
X252755Y141005D02*X252690Y140945D01*
X243200Y142036D02*X243110Y142126D01*
X187800Y126317D02*X193400Y131917D01*
Y141836D01*
G54D11*X74000Y19417D02*X61500Y31917D01*
G54D13*X80000Y101417D02*Y90417D01*
X61500Y71917D01*
X91000Y112417D02*X80000Y101417D01*
G54D12*X86000D02*Y81654D01*
X93000Y108417D02*X86000Y101417D01*
G54D13*X194000Y112417D02*X91000D01*
G54D11*X174000Y20417D02*Y27417D01*
X173000Y19417D02*X174000Y20417D01*
G54D12*X130709Y65417D02*X137130Y71838D01*
X137000Y27417D02*Y34417D01*
X141000Y38417D01*
X208000D01*
G54D13*X200787Y94912D02*Y105630D01*
G54D12*X194000Y86417D02*X189000Y81417D01*
X124769D01*
X207000Y89417D02*X151000D01*
X139000Y116817D02*Y121217D01*
X144100Y126317D01*
X187800D01*
X124769Y81417D02*X115478Y72126D01*
X114740D01*
X95083Y91783D01*
X112000Y65417D02*X130709D01*
G54D11*X74000Y19417D02*X173000D01*
G54D12*X151000Y89417D02*X132000Y108417D01*
X93000D01*
X86000Y81654D02*X95083Y72571D01*
X104846D01*
X112000Y65417D01*
X195040Y119181D02*Y115971D01*
Y119181D02*X195575Y119716D01*
X196645D01*
X197180Y119181D01*
Y115971D01*
X196645Y115436D02*X197180Y115971D01*
X195575Y115436D02*X196645D01*
X195040Y115971D02*X195575Y115436D01*
X198465Y119716D02*X200605D01*
X199535D02*Y115436D01*
X201890Y119716D02*Y115436D01*
X204565Y119716D02*Y115436D01*
X201890Y117576D02*X204565D01*
X205850D02*X207455D01*
X205850Y115436D02*X207990D01*
X205850Y119716D02*Y115436D01*
Y119716D02*X207990D01*
X209275D02*X211415D01*
X211950Y119181D01*
Y118111D01*
X211415Y117576D02*X211950Y118111D01*
X209810Y117576D02*X211415D01*
X209810Y119716D02*Y115436D01*
Y117576D02*X211950Y115436D01*
X217301Y119716D02*X217836Y119181D01*
X215696Y119716D02*X217301D01*
X215161Y119181D02*X215696Y119716D01*
X215161Y119181D02*Y118111D01*
X215696Y117576D01*
X217301D01*
X217836Y117041D01*
Y115971D01*
X217301Y115436D02*X217836Y115971D01*
X215696Y115436D02*X217301D01*
X215161Y115971D02*X215696Y115436D01*
X219121Y119716D02*X220191D01*
X219656D02*Y115436D01*
X219121D02*X220191D01*
X222011Y119716D02*Y115436D01*
X223616Y119716D02*X224151Y119181D01*
Y115971D01*
X223616Y115436D02*X224151Y115971D01*
X221476Y115436D02*X223616D01*
X221476Y119716D02*X223616D01*
X225436Y117576D02*X227041D01*
X225436Y115436D02*X227576D01*
X225436Y119716D02*Y115436D01*
Y119716D02*X227576D01*
X192756Y126331D02*Y122051D01*
Y126331D02*X194361Y124726D01*
X195966Y126331D01*
Y122051D01*
X197251Y125796D02*Y122586D01*
Y125796D02*X197786Y126331D01*
X198856D01*
X199391Y125796D01*
Y122586D01*
X198856Y122051D02*X199391Y122586D01*
X197786Y122051D02*X198856D01*
X197251Y122586D02*X197786Y122051D01*
X200676Y126331D02*Y122586D01*
X201211Y122051D01*
X202281D01*
X202816Y122586D01*
Y126331D02*Y122586D01*
X204101Y126331D02*Y122051D01*
Y126331D02*Y125796D01*
X206776Y123121D01*
Y126331D02*Y122051D01*
X208061Y126331D02*X210201D01*
X209131D02*Y122051D01*
X213412Y126331D02*Y122051D01*
X215552D01*
X217372D02*X218977D01*
X216837Y122586D02*X217372Y122051D01*
X216837Y125796D02*Y122586D01*
Y125796D02*X217372Y126331D01*
X218977D01*
X220797D02*Y122051D01*
X222402Y126331D02*X222937Y125796D01*
Y122586D01*
X222402Y122051D02*X222937Y122586D01*
X220262Y122051D02*X222402D01*
X220262Y126331D02*X222402D01*
X226148Y125796D02*Y122586D01*
Y125796D02*X226683Y126331D01*
X227753D01*
X228288Y125796D01*
Y122586D01*
X227753Y122051D02*X228288Y122586D01*
X226683Y122051D02*X227753D01*
X226148Y122586D02*X226683Y122051D01*
X229573Y126331D02*Y122051D01*
Y126331D02*Y125796D01*
X232248Y123121D01*
Y126331D02*Y122051D01*
G54D14*G36*
X121030Y51107D02*Y44607D01*
X127530D01*
Y51107D01*
X121030D01*
G37*
G36*
X122950Y31467D02*Y23367D01*
X131050D01*
Y31467D01*
X122950D01*
G37*
G54D15*X137000Y27417D03*
G54D16*X137130Y91838D03*
Y71838D03*
X115478Y92126D03*
Y72126D03*
G54D17*X95083Y72571D03*
Y91783D03*
G54D18*X19685Y19685D03*
G54D14*G36*
X40692Y92622D02*Y84622D01*
X48692D01*
Y92622D01*
X40692D01*
G37*
G54D19*X44692Y63032D03*
X26976Y88622D03*
Y63032D03*
G54D18*X19685Y141732D03*
G54D20*X61500Y71917D03*
Y31917D03*
Y128417D03*
Y88417D03*
G54D18*X314961Y19685D03*
G54D21*X143110Y142126D03*
X153110D03*
X163110D03*
X173110D03*
X183110D03*
X193110D03*
X203110D03*
X213110D03*
X223110D03*
X233110D03*
X243110D03*
X253110D03*
X263110D03*
X273110D03*
X283110D03*
G54D14*G36*
X289961Y145275D02*Y138976D01*
X296260D01*
Y145275D01*
X289961D01*
G37*
G54D18*X314961Y141732D03*
G54D22*X94000Y128417D03*
X104000D03*
G54D14*G36*
X80400Y132017D02*Y124817D01*
X87600D01*
Y132017D01*
X80400D01*
G37*
G54D23*X259685Y89602D03*
G54D16*X230787Y96412D03*
G54D24*X288134Y90457D03*
G54D23*X259685Y69602D03*
G54D14*G36*
X274354Y74708D02*Y66834D01*
X282228D01*
Y74708D01*
X274354D01*
G37*
G54D24*X297977Y70771D03*
G54D16*X220787Y96412D03*
X210787D03*
X200787D03*
X190787D03*
X180787D03*
X170787D03*
Y66412D03*
X180787D03*
X190787D03*
X200787D03*
X210787D03*
X220787D03*
X230787D03*
G54D23*X154280Y47857D03*
G54D15*X147000Y27417D03*
G54D14*G36*
X159950Y31467D02*Y23367D01*
X168050D01*
Y31467D01*
X159950D01*
G37*
G54D15*X174000Y27417D03*
G54D25*X248900Y81517D03*
X139000Y116817D03*
G54D26*X213110Y143701D02*Y140551D01*
X223110Y143701D02*Y140551D01*
G54D16*X220787Y97912D02*Y94912D01*
G54D26*X233110Y143701D02*Y140551D01*
G54D16*X230787Y97912D02*Y94912D01*
G54D26*X243110Y143701D02*Y140551D01*
X253110Y143701D02*Y140551D01*
X263110Y143701D02*Y140551D01*
X273110Y143701D02*Y140551D01*
X283110Y143701D02*Y140551D01*
G54D27*X293110Y143701D02*Y140551D01*
G54D26*X173110Y143701D02*Y140551D01*
X183110Y143701D02*Y140551D01*
X193110Y143701D02*Y140551D01*
X203110Y143701D02*Y140551D01*
X143110Y143701D02*Y140551D01*
X153110Y143701D02*Y140551D01*
X163110Y143701D02*Y140551D01*
G54D16*X210787Y97912D02*Y94912D01*
X200787Y97912D02*Y94912D01*
X190787Y97912D02*Y94912D01*
X180787Y97912D02*Y94912D01*
X170787Y97912D02*Y94912D01*
Y67912D02*Y64912D01*
X180787Y67912D02*Y64912D01*
X190787Y67912D02*Y64912D01*
X200787Y67912D02*Y64912D01*
X210787Y67912D02*Y64912D01*
X220787Y67912D02*Y64912D01*
X230787Y67912D02*Y64912D01*
G54D28*G54D25*G54D28*G54D29*G54D30*G54D25*G54D30*G54D31*G54D30*G54D31*G54D30*G54D32*G54D28*G54D33*G54D28*G54D33*G54D28*G54D25*G54D14*M02*
